<?xml version="1.0" encoding="UTF-8" standalone="no"?>
<!-- Created with Inkscape (http://www.inkscape.org/) -->

<svg
   xmlns:dc="http://purl.org/dc/elements/1.1/"
   xmlns:cc="http://creativecommons.org/ns#"
   xmlns:rdf="http://www.w3.org/1999/02/22-rdf-syntax-ns#"
   xmlns:svg="http://www.w3.org/2000/svg"
   xmlns="http://www.w3.org/2000/svg"
   xmlns:sodipodi="http://sodipodi.sourceforge.net/DTD/sodipodi-0.dtd"
   xmlns:inkscape="http://www.inkscape.org/namespaces/inkscape"
   width="729.10046"
   height="252.53125"
   id="svg2"
   version="1.1"
   inkscape:version="0.48.5 r10040"
   sodipodi:docname="door.svg"
   inkscape:export-filename="/home/nicola/Documents/repos/game-sound-sae2017/images/ed-agosto-settembre-2017/pt3/door.png"
   inkscape:export-xdpi="126.519"
   inkscape:export-ydpi="126.519">
  <sodipodi:namedview
     id="base"
     pagecolor="#ffffff"
     bordercolor="#666666"
     borderopacity="1.0"
     inkscape:pageopacity="1"
     inkscape:pageshadow="2"
     inkscape:zoom="0.7"
     inkscape:cx="650.23683"
     inkscape:cy="99.753444"
     inkscape:document-units="px"
     inkscape:current-layer="layer1"
     showgrid="false"
     inkscape:window-width="1440"
     inkscape:window-height="834"
     inkscape:window-x="0"
     inkscape:window-y="27"
     inkscape:window-maximized="1"
     showguides="true"
     inkscape:guide-bbox="true"
     fit-margin-top="0"
     fit-margin-left="0"
     fit-margin-right="0"
     fit-margin-bottom="0">
    <sodipodi:guide
       id="guide4021"
       position="338.91071,-35.750573"
       orientation="1,0" />
  </sodipodi:namedview>
  <defs
     id="defs4" />
  <metadata
     id="metadata7">
    <rdf:RDF>
      <cc:Work
         rdf:about="">
        <dc:format>image/svg+xml</dc:format>
        <dc:type
           rdf:resource="http://purl.org/dc/dcmitype/StillImage" />
        <dc:title></dc:title>
      </cc:Work>
    </rdf:RDF>
  </metadata>
  <g
     inkscape:label="Layer 1"
     inkscape:groupmode="layer"
     id="layer1"
     transform="translate(4.625,-156.9375)">
    <path
       style="fill:#e6e6e6;fill-opacity:1;stroke:#000000;stroke-width:1px;stroke-linecap:butt;stroke-linejoin:miter;stroke-opacity:1"
       d="m -2.7548959,286.73554 0.7755618,22.17885 123.1367241,99.87621 173.04066,-187.68697 0,-20.20306 z"
       id="path2987"
       inkscape:connector-curvature="0"
       sodipodi:nodetypes="cccccc" />
    <path
       style="fill:#ffffff;fill-opacity:1;stroke:#000000;stroke-width:2;stroke-linecap:butt;stroke-linejoin:miter;stroke-miterlimit:4;stroke-opacity:1;stroke-dasharray:none"
       d="m 194.28571,158.07647 100,42.85714 L 120,374.36218 -2.8571429,286.6479 z"
       id="path2985"
       inkscape:connector-curvature="0"
       sodipodi:nodetypes="ccccc" />
    <path
       style="fill:none;stroke:#ff0000;stroke-width:4;stroke-linecap:round;stroke-linejoin:miter;stroke-miterlimit:4;stroke-opacity:1;stroke-dasharray:none"
       d="M 194.28571,161.6479 120,369.50504"
       id="path2989"
       inkscape:connector-curvature="0" />
    <text
       xml:space="preserve"
       style="font-size:32px;font-style:normal;font-variant:normal;font-weight:normal;font-stretch:normal;line-height:125%;letter-spacing:0px;word-spacing:0px;fill:#000000;fill-opacity:1;stroke:none;font-family:'Tom\'s New Roman';-inkscape-font-specification:'Tom\'s New Roman'"
       x="76.428574"
       y="204.50504"
       id="text3759"
       sodipodi:linespacing="125%"><tspan
         sodipodi:role="line"
         id="tspan3761"
         x="76.428574"
         y="204.50504">h</tspan></text>
    <text
       xml:space="preserve"
       style="font-size:32px;font-style:normal;font-variant:normal;font-weight:normal;font-stretch:normal;line-height:125%;letter-spacing:0px;word-spacing:0px;fill:#000000;fill-opacity:1;stroke:none;font-family:'Tom\'s New Roman';-inkscape-font-specification:'Tom\'s New Roman'"
       x="12.142857"
       y="371.64789"
       id="text3763"
       sodipodi:linespacing="125%"><tspan
         sodipodi:role="line"
         id="tspan3765"
         x="12.142857"
         y="371.64789">w</tspan></text>
    <text
       xml:space="preserve"
       style="font-size:32px;font-style:normal;font-variant:normal;font-weight:normal;font-stretch:normal;line-height:125%;letter-spacing:0px;word-spacing:0px;fill:#ff0000;fill-opacity:1;stroke:none;font-family:'Tom\'s New Roman';-inkscape-font-specification:'Tom\'s New Roman'"
       x="197.85715"
       y="236.64789"
       id="text3767"
       sodipodi:linespacing="125%"><tspan
         sodipodi:role="line"
         id="tspan3769"
         x="197.85715"
         y="236.64789">L</tspan></text>
    <g
       transform="matrix(0.80271695,0,0,0.80271695,91.100416,-46.696588)"
       id="g3785">
      <g
         style="font-style:normal;font-variant:normal;font-weight:normal;font-stretch:normal;letter-spacing:normal;word-spacing:normal;text-anchor:start;fill:none;stroke:#000000;stroke-linecap:butt;stroke-linejoin:miter;stroke-miterlimit:10.43299961;stroke-opacity:1;stroke-dasharray:none;stroke-dashoffset:0"
         id="content"
         transform="matrix(1.0629921,0,0,-1.0629921,-186.02362,789.27165)"
         xml:space="preserve"
         stroke-miterlimit="10.433"
         font-style="normal"
         font-variant="normal"
         font-weight="normal"
         font-stretch="normal"
         font-size-adjust="none"
         letter-spacing="normal"
         word-spacing="normal"><path
           style="fill:#000000;stroke-width:0"
           inkscape:connector-curvature="0"
           d="m 473.8,426.12 h 4.28 c 1,0 1.5,0 1.5,1 0,0.55 -0.5,0.55 -1.34,0.55 h -4.14 l 1.04,5.69 c 0.21,1.04 0.91,4.57 1.21,5.17 0.45,0.95 1.29,1.7 2.34,1.7 0.19,0 1.49,0 2.44,-0.91 -2.19,-0.18 -2.69,-1.93 -2.69,-2.68 0,-1.14 0.89,-1.74 1.85,-1.74 1.29,0 2.73,1.1 2.73,2.99 0,2.29 -2.3,3.43 -4.33,3.43 -1.7,0 -4.84,-0.89 -6.33,-5.82 -0.29,-1.05 -0.45,-1.55 -1.64,-7.83 h -3.43 c -0.96,0 -1.5,0 -1.5,-0.94 0,-0.61 0.45,-0.61 1.39,-0.61 h 3.29 l -3.75,-19.67 c -0.89,-4.83 -1.73,-9.38 -4.33,-9.38 -0.2,0 -1.43,0 -2.39,0.91 2.3,0.14 2.74,1.94 2.74,2.69 0,1.14 -0.89,1.75 -1.85,1.75 -1.29,0 -2.73,-1.1 -2.73,-3 0,-2.24 2.19,-3.44 4.23,-3.44 2.74,0 4.74,2.94 5.63,4.84 1.59,3.14 2.75,9.16 2.8,9.52 z"
           id="path3788" /><path
           style="fill:#000000;stroke-width:0"
           inkscape:connector-curvature="0"
           d="m 491.55,420.92 0,0.04 0,0.04 0,0.05 0,0.04 0,0.03 0,0.04 0,0.04 0,0.03 -0.01,0.04 0,0.03 0,0.03 0,0.03 0,0.03 -0.01,0.03 0,0.03 0,0.02 -0.01,0.03 0,0.02 -0.01,0.03 0,0.02 -0.02,0.04 -0.01,0.04 -0.02,0.03 -0.02,0.03 -0.02,0.03 -0.02,0.03 -0.03,0.02 -0.03,0.02 -0.04,0.02 -0.03,0.01 -0.04,0.01 -0.05,0.02 -0.02,0 -0.03,0 -0.02,0.01 -0.03,0 -0.02,0.01 -0.03,0 -0.03,0 -0.03,0 -0.04,0 -0.03,0.01 -0.03,0 -0.04,0 -0.04,0 -0.03,0 -0.04,0 -0.04,0 -0.04,0 -0.05,0 -0.04,0 -0.05,0 c -2.23,-2.2 -5.39,-2.23 -6.82,-2.23 v -1.25 c 0.84,0 3.14,0 5.04,0.97 v -17.77 c 0,-1.16 0,-1.61 -3.48,-1.61 h -1.31 v -1.25 c 0.62,0.03 4.9,0.14 6.2,0.14 1.08,0 5.47,-0.11 6.23,-0.14 v 1.25 h -1.32 c -3.49,0 -3.49,0.45 -3.49,1.61 z"
           id="path3790" /><path
           style="fill:#000000;stroke-width:0"
           inkscape:connector-curvature="0"
           d="m 511.35,420.92 0,0.04 0,0.04 0,0.05 0,0.04 0,0.03 0,0.04 -0.01,0.04 0,0.03 0,0.04 0,0.03 0,0.03 0,0.03 -0.01,0.03 0,0.03 0,0.03 -0.01,0.02 0,0.03 -0.01,0.02 0,0.03 -0.01,0.02 -0.01,0.04 -0.01,0.04 -0.02,0.03 -0.02,0.03 -0.02,0.03 -0.03,0.03 -0.02,0.02 -0.03,0.02 -0.04,0.02 -0.04,0.01 -0.04,0.01 -0.04,0.02 -0.02,0 -0.03,0 -0.02,0.01 -0.03,0 -0.03,0.01 -0.03,0 -0.03,0 -0.03,0 -0.03,0 -0.03,0.01 -0.04,0 -0.03,0 -0.04,0 -0.04,0 -0.03,0 -0.05,0 -0.04,0 -0.04,0 -0.04,0 -0.05,0 c -2.23,-2.2 -5.39,-2.23 -6.83,-2.23 v -1.25 c 0.85,0 3.14,0 5.05,0.97 v -17.77 c 0,-1.16 0,-1.61 -3.48,-1.61 h -1.32 v -1.25 c 0.63,0.03 4.91,0.14 6.21,0.14 1.07,0 5.47,-0.11 6.23,-0.14 v 1.25 h -1.33 c -3.48,0 -3.48,0.45 -3.48,1.61 z"
           id="path3792" /><path
           style="fill:#000000;stroke-width:0"
           inkscape:connector-curvature="0"
           d="m 570.27,422.5 0.14,0 0.15,0 0.14,0 0.07,0.01 0.08,0 0.07,0.01 0.07,0.01 0.07,0.01 0.07,0.01 0.07,0.01 0.06,0.02 0.07,0.02 0.06,0.02 0.06,0.02 0.06,0.03 0.06,0.03 0.05,0.04 0.05,0.03 0.05,0.05 0.04,0.04 0.04,0.05 0.02,0.03 0.02,0.03 0.01,0.02 0.02,0.03 0.01,0.03 0.02,0.04 0.01,0.03 0.01,0.04 0.01,0.03 0.01,0.04 0,0.04 0.01,0.04 0,0.04 0.01,0.04 0,0.04 0,0.05 c 0,1 -0.95,1 -1.64,1 h -29.84 c -0.71,0 -1.64,0 -1.64,-1 0,-0.98 0.93,-0.98 1.68,-0.98 z"
           id="path3794" /><path
           style="fill:#000000;stroke-width:0"
           inkscape:connector-curvature="0"
           d="m 570.32,412.82 0.07,0 0.06,0 0.14,0.01 0.14,0 0.07,0 0.07,0.01 0.07,0.01 0.07,0 0.06,0.01 0.07,0.02 0.07,0.01 0.06,0.02 0.07,0.02 0.06,0.02 0.06,0.02 0.06,0.03 0.05,0.03 0.05,0.04 0.05,0.04 0.05,0.04 0.04,0.05 0.02,0.02 0.02,0.03 0.02,0.02 0.02,0.03 0.01,0.03 0.02,0.03 0.01,0.03 0.02,0.03 0.01,0.04 0.01,0.03 0.01,0.04 0.01,0.04 0,0.04 0.01,0.04 0,0.04 0.01,0.04 0,0.05 0,0.04 c 0,1 -0.95,1 -1.69,1 h -29.75 c -0.75,0 -1.68,0 -1.68,-1 0,-1 0.93,-1 1.64,-1 z"
           id="path3796" /><path
           style="fill:#000000;stroke-width:0"
           inkscape:connector-curvature="0"
           d="m 624.5,439.11 -0.11,-0.03 -0.11,-0.02 -0.11,-0.03 -0.11,-0.04 -0.1,-0.03 -0.09,-0.04 -0.09,-0.05 -0.09,-0.05 -0.08,-0.05 -0.08,-0.05 -0.07,-0.06 -0.08,-0.06 -0.06,-0.06 -0.07,-0.07 -0.06,-0.06 -0.05,-0.07 -0.05,-0.07 -0.05,-0.07 -0.05,-0.07 -0.04,-0.08 -0.03,-0.07 -0.04,-0.08 -0.03,-0.07 -0.03,-0.08 -0.02,-0.07 -0.02,-0.08 -0.02,-0.08 -0.01,-0.07 -0.01,-0.08 -0.01,-0.07 -0.01,-0.08 0,-0.07 c 0,-0.94 0.74,-1.28 1.36,-1.28 0.77,0 1.99,0.55 1.99,2.22 0,2.37 -2.72,3.03 -4.6,3.03 -5.23,0 -10.07,-4.8 -10.07,-9.64 0,-3 2.09,-6.06 6.45,-6.06 5.89,0 8.64,3.44 8.64,3.94 0,0.2 -0.31,0.59 -0.59,0.59 -0.21,0 -0.29,-0.08 -0.57,-0.36 -2.72,-3.2 -6.8,-3.2 -7.42,-3.2 -2.5,0 -3.63,1.7 -3.63,3.87 0,1 0.5,4.8 2.32,7.2 1.31,1.72 3.12,2.69 4.87,2.69 0.49,0 2.16,-0.06 3.03,-1.04 z"
           id="path3798" /><polyline
           style="fill:#000000;fill-rule:nonzero;stroke-width:0"
           points="595,418 642.28,418 642.28,420.04 595,420.04 "
           id="polyline3800" /><path
           style="fill:#000000;stroke-width:0"
           inkscape:connector-curvature="0"
           d="m 612.2,395.38 h -1.19 c -0.1,-0.76 -0.46,-2.83 -0.91,-3.17 -0.26,-0.2 -2.95,-0.2 -3.44,-0.2 h -6.42 c 3.66,3.23 4.88,4.2 6.97,5.84 2.58,2.06 4.99,4.22 4.99,7.53 0,4.22 -3.69,6.8 -8.16,6.8 -4.31,0 -7.25,-3.03 -7.25,-6.23 0,-1.79 1.5,-1.96 1.86,-1.96 0.83,0 1.84,0.6 1.84,1.85 0,0.62 -0.25,1.84 -2.06,1.84 1.08,2.47 3.45,3.23 5.09,3.23 3.49,0 5.3,-2.7 5.3,-5.53 0,-3.03 -2.16,-5.43 -3.28,-6.68 l -8.39,-8.3 c -0.36,-0.31 -0.36,-0.39 -0.36,-1.36 h 14.36 z"
           id="path3802" /><path
           style="fill:#000000;stroke-width:0"
           inkscape:connector-curvature="0"
           d="m 628.76,409.98 0.03,0.11 0.02,0.11 0.03,0.11 0.03,0.1 0.03,0.09 0.03,0.1 0.04,0.08 0.04,0.08 0.04,0.08 0.04,0.07 0.05,0.07 0.06,0.06 0.06,0.06 0.07,0.06 0.07,0.05 0.09,0.05 0.09,0.04 0.1,0.04 0.11,0.04 0.12,0.03 0.07,0.02 0.06,0.01 0.07,0.01 0.08,0.02 0.07,0.01 0.08,0.01 0.08,0.01 0.09,0.01 0.09,0.01 0.09,0.01 0.1,0.01 0.1,0.01 0.1,0 0.11,0.01 0.11,0 0.11,0.01 0.12,0 0.12,0.01 0.13,0 0.13,0 0.13,0 0.14,0 0.15,0.01 0.14,0 c 1.08,0 1.42,0 1.42,0.76 0,0.03 -0.03,0.49 -0.59,0.49 -0.8,0 -1.73,-0.07 -2.58,-0.11 -0.87,-0.03 -1.9,-0.03 -2.78,-0.03 -0.73,0 -1.67,0.03 -2.4,0.03 -0.74,0 -1.57,0.11 -2.27,0.11 -0.2,0 -0.73,0 -0.73,-0.77 0,-0.48 0.42,-0.48 1.12,-0.48 0.03,0 0.69,0 1.31,-0.08 0.74,-0.06 0.82,-0.14 0.82,-0.49 0,-0.06 0,-0.23 -0.15,-0.76 l -4.64,-18.5 c -0.31,-1.19 -0.39,-1.47 -3.06,-1.47 -0.59,0 -1.05,0 -1.05,-0.74 0,-0.51 0.43,-0.51 1.05,-0.51 h 17.52 c 0.87,0 0.9,0.03 1.18,0.7 0.36,0.94 2.97,7.69 2.97,7.97 0,0.11 -0.07,0.5 -0.59,0.5 -0.42,0 -0.48,-0.19 -0.7,-0.73 -1.32,-3.32 -2.86,-7.19 -9.24,-7.19 h -3.94 c -1.07,0 -1.1,0.05 -1.1,0.36 0,0.03 0,0.2 0.14,0.72 z"
           id="path3804" /></g>    </g>
    <g
       id="g4061"
       transform="matrix(0.80271695,0,0,0.80271695,91.100406,27.130059)">
      <g
         word-spacing="normal"
         letter-spacing="normal"
         font-size-adjust="none"
         font-stretch="normal"
         font-weight="normal"
         font-variant="normal"
         font-style="normal"
         stroke-miterlimit="10.433"
         xml:space="preserve"
         transform="matrix(1.0629921,0,0,-1.0629921,-186.02362,789.27165)"
         id="g4063"
         style="font-style:normal;font-variant:normal;font-weight:normal;font-stretch:normal;letter-spacing:normal;word-spacing:normal;text-anchor:start;fill:none;stroke:#000000;stroke-linecap:butt;stroke-linejoin:miter;stroke-miterlimit:10.43299961;stroke-opacity:1;stroke-dasharray:none;stroke-dashoffset:0"><path
           id="path4065"
           d="m 473.8,412.56 h 4.28 c 1,0 1.5,0 1.5,1 0,0.55 -0.5,0.55 -1.34,0.55 h -4.14 l 1.04,5.69 c 0.21,1.04 0.91,4.58 1.21,5.17 0.45,0.95 1.29,1.7 2.34,1.7 0.19,0 1.49,0 2.44,-0.9 -2.19,-0.19 -2.69,-1.94 -2.69,-2.69 0,-1.14 0.89,-1.74 1.85,-1.74 1.29,0 2.73,1.1 2.73,2.99 0,2.29 -2.3,3.44 -4.33,3.44 -1.7,0 -4.84,-0.89 -6.33,-5.83 -0.29,-1.05 -0.45,-1.55 -1.64,-7.83 h -3.43 c -0.96,0 -1.5,0 -1.5,-0.94 0,-0.61 0.45,-0.61 1.39,-0.61 h 3.29 l -3.75,-19.67 c -0.89,-4.83 -1.73,-9.37 -4.33,-9.37 -0.2,0 -1.43,0 -2.39,0.9 2.3,0.14 2.74,1.94 2.74,2.69 0,1.14 -0.89,1.75 -1.85,1.75 -1.29,0 -2.73,-1.09 -2.73,-3 0,-2.24 2.19,-3.44 4.23,-3.44 2.74,0 4.74,2.94 5.63,4.85 1.59,3.14 2.75,9.15 2.8,9.51 z"
           inkscape:connector-curvature="0"
           style="fill:#000000;stroke-width:0" /><path
           id="path4067"
           d="m 495,388.03 -0.01,-0.07 -0.02,-0.07 -0.02,-0.07 -0.02,-0.08 -0.02,-0.07 -0.01,-0.08 -0.04,-0.16 -0.04,-0.16 -0.04,-0.16 -0.04,-0.16 -0.02,-0.08 -0.02,-0.07 -0.02,-0.08 -0.02,-0.07 -0.02,-0.07 -0.01,-0.07 -0.02,-0.07 -0.01,-0.06 -0.02,-0.06 -0.01,-0.06 -0.01,-0.05 -0.01,-0.05 -0.01,-0.05 -0.01,-0.04 0,-0.03 -0.01,-0.03 0,-0.03 0,-0.02 c 0,-0.76 0.62,-1.1 1.17,-1.1 0.64,0 1.19,0.45 1.36,0.76 0.19,0.31 0.45,1.42 0.64,2.16 0.17,0.65 0.55,2.26 0.77,3.14 0.2,0.76 0.4,1.53 0.59,2.33 0.38,1.5 0.38,1.56 1.08,2.65 1.11,1.71 2.86,3.69 5.56,3.69 1.95,0 2.06,-1.61 2.06,-2.44 0,-2.09 -1.5,-5.95 -2.06,-7.42 -0.37,-0.98 -0.51,-1.3 -0.51,-1.89 0,-1.84 1.53,-2.98 3.31,-2.98 3.48,0 5.01,4.79 5.01,5.32 0,0.46 -0.45,0.46 -0.56,0.46 -0.48,0 -0.51,-0.21 -0.66,-0.6 -0.79,-2.78 -2.29,-4.22 -3.68,-4.22 -0.74,0 -0.88,0.49 -0.88,1.22 0,0.8 0.17,1.25 0.8,2.83 0.42,1.08 1.84,4.77 1.84,6.72 0,0.56 0,2.03 -1.28,3.03 -0.59,0.45 -1.61,0.94 -3.25,0.94 -3.12,0 -5.04,-2.05 -6.15,-3.52 -0.29,2.97 -2.77,3.52 -4.54,3.52 -2.89,0 -4.84,-1.77 -5.89,-3.16 -0.25,2.39 -2.29,3.16 -3.73,3.16 -1.5,0 -2.3,-1.08 -2.75,-1.88 -0.77,-1.28 -1.25,-3.28 -1.25,-3.45 0,-0.45 0.48,-0.45 0.59,-0.45 0.49,0 0.52,0.11 0.77,1.04 0.51,2.07 1.19,3.77 2.55,3.77 0.9,0 1.14,-0.77 1.14,-1.7 0,-0.68 -0.32,-1.96 -0.57,-2.89 -0.23,-0.96 -0.57,-2.38 -0.76,-3.14 l -1.11,-4.47 c -0.14,-0.44 -0.34,-1.32 -0.34,-1.43 0,-0.76 0.62,-1.1 1.18,-1.1 0.63,0 1.17,0.45 1.36,0.76 0.17,0.31 0.46,1.42 0.63,2.16 0.17,0.65 0.54,2.26 0.76,3.14 0.21,0.76 0.42,1.53 0.6,2.33 0.37,1.43 0.45,1.7 1.45,3.14 0.98,1.39 2.62,3.2 5.23,3.2 2.02,0 2.05,-1.78 2.05,-2.44 0,-0.87 -0.09,-1.33 -0.59,-3.28 z"
           inkscape:connector-curvature="0"
           style="fill:#000000;stroke-width:0" /><path
           id="path4069"
           d="m 522.64,385.76 -0.01,-0.36 -0.01,-0.37 -0.03,-0.38 -0.05,-0.38 -0.02,-0.2 -0.04,-0.19 -0.04,-0.2 -0.04,-0.19 -0.05,-0.2 -0.06,-0.2 -0.06,-0.2 -0.07,-0.2 -0.07,-0.21 -0.09,-0.2 -0.09,-0.2 -0.1,-0.21 -0.1,-0.2 -0.12,-0.21 -0.12,-0.2 -0.13,-0.21 -0.14,-0.21 -0.16,-0.21 -0.16,-0.2 -0.17,-0.21 -0.18,-0.21 -0.19,-0.21 -0.21,-0.21 -0.21,-0.2 c -0.14,-0.14 -0.25,-0.25 -0.25,-0.43 0,-0.25 0.28,-0.48 0.48,-0.48 0.49,0 3.45,2.78 3.45,6.92 0,2.17 -0.84,3.8 -2.43,3.8 -1.16,0 -1.99,-0.91 -1.99,-1.99 0,-1.1 0.8,-2.01 2.02,-2.01 0.84,0 1.39,0.56 1.44,0.56 z"
           inkscape:connector-curvature="0"
           style="fill:#000000;stroke-width:0" /><path
           id="path4071"
           d="m 531.41,387.39 -0.02,-0.05 -0.01,-0.04 -0.01,-0.05 -0.02,-0.05 -0.01,-0.05 -0.02,-0.05 -0.01,-0.05 -0.02,-0.05 -0.03,-0.11 -0.02,-0.12 -0.03,-0.11 -0.03,-0.11 -0.01,-0.05 -0.01,-0.05 -0.01,-0.05 -0.02,-0.05 -0.01,-0.05 -0.01,-0.05 -0.01,-0.04 0,-0.04 -0.01,-0.04 -0.01,-0.03 0,-0.03 -0.01,-0.03 0,-0.03 -0.01,-0.02 0,0 0,-0.01 0,-0.01 0,-0.01 c 0,-0.76 0.63,-1.1 1.19,-1.1 0.63,0 1.17,0.45 1.36,0.76 0.17,0.31 0.45,1.42 0.62,2.16 0.18,0.65 0.55,2.26 0.77,3.14 0.2,0.76 0.42,1.53 0.59,2.33 0.38,1.43 0.46,1.7 1.46,3.14 0.98,1.39 2.62,3.2 5.23,3.2 2.02,0 2.05,-1.78 2.05,-2.44 0,-2.09 -1.49,-5.95 -2.05,-7.42 -0.39,-0.98 -0.53,-1.3 -0.53,-1.89 0,-1.84 1.55,-2.98 3.31,-2.98 3.49,0 5.02,4.79 5.02,5.32 0,0.46 -0.46,0.46 -0.55,0.46 -0.5,0 -0.53,-0.21 -0.67,-0.6 -0.8,-2.78 -2.3,-4.22 -3.69,-4.22 -0.73,0 -0.87,0.49 -0.87,1.22 0,0.8 0.17,1.25 0.79,2.83 0.43,1.08 1.86,4.77 1.86,6.72 0,3.39 -2.68,3.97 -4.53,3.97 -2.89,0 -4.84,-1.77 -5.89,-3.16 -0.25,2.39 -2.3,3.16 -3.73,3.16 -1.5,0 -2.3,-1.08 -2.75,-1.88 -0.77,-1.28 -1.25,-3.28 -1.25,-3.45 0,-0.45 0.48,-0.45 0.59,-0.45 0.49,0 0.52,0.11 0.77,1.04 0.51,2.07 1.18,3.77 2.54,3.77 0.91,0 1.14,-0.77 1.14,-1.7 0,-0.68 -0.31,-1.96 -0.56,-2.89 -0.23,-0.96 -0.58,-2.38 -0.76,-3.14 z"
           inkscape:connector-curvature="0"
           style="fill:#000000;stroke-width:0" /><path
           id="path4073"
           d="m 602.31,408.94 0.14,0 0.15,0 0.14,0 0.07,0.01 0.08,0 0.07,0.01 0.07,0.01 0.07,0.01 0.07,0.01 0.07,0.01 0.06,0.02 0.07,0.02 0.06,0.02 0.06,0.03 0.06,0.02 0.06,0.03 0.05,0.04 0.05,0.04 0.05,0.04 0.04,0.04 0.04,0.05 0.02,0.03 0.02,0.03 0.01,0.03 0.02,0.03 0.01,0.03 0.01,0.03 0.02,0.03 0.01,0.04 0.01,0.03 0.01,0.04 0,0.04 0.01,0.04 0,0.04 0.01,0.04 0,0.05 0,0.04 c 0,1 -0.95,1 -1.64,1 h -29.84 c -0.71,0 -1.64,0 -1.64,-1 0,-0.98 0.93,-0.98 1.68,-0.98 z"
           inkscape:connector-curvature="0"
           style="fill:#000000;stroke-width:0" /><path
           id="path4075"
           d="m 602.36,399.27 0.06,0 0.07,0 0.14,0 0.14,0 0.07,0.01 0.07,0 0.07,0.01 0.06,0.01 0.07,0.01 0.07,0.01 0.07,0.01 0.06,0.02 0.07,0.02 0.06,0.02 0.06,0.03 0.05,0.02 0.06,0.04 0.05,0.03 0.05,0.04 0.05,0.04 0.04,0.05 0.02,0.02 0.02,0.03 0.02,0.02 0.02,0.03 0.01,0.03 0.02,0.03 0.01,0.03 0.01,0.04 0.02,0.03 0.01,0.04 0.01,0.03 0.01,0.04 0,0.04 0.01,0.04 0,0.04 0.01,0.05 0,0.04 0,0.05 c 0,1 -0.95,1 -1.69,1 h -29.75 c -0.75,0 -1.68,0 -1.68,-1 0,-1 0.93,-1 1.64,-1 z"
           inkscape:connector-curvature="0"
           style="fill:#000000;stroke-width:0" /><path
           id="path4077"
           d="m 638.92,412.56 h 4.28 c 1,0 1.5,0 1.5,1 0,0.55 -0.5,0.55 -1.35,0.55 h -4.13 l 1.04,5.69 c 0.21,1.04 0.91,4.58 1.21,5.17 0.45,0.95 1.29,1.7 2.34,1.7 0.19,0 1.48,0 2.44,-0.9 -2.19,-0.19 -2.69,-1.94 -2.69,-2.69 0,-1.14 0.89,-1.74 1.84,-1.74 1.3,0 2.74,1.1 2.74,2.99 0,2.29 -2.3,3.44 -4.33,3.44 -1.71,0 -4.84,-0.89 -6.33,-5.83 -0.3,-1.05 -0.45,-1.55 -1.64,-7.83 h -3.44 c -0.95,0 -1.5,0 -1.5,-0.94 0,-0.61 0.45,-0.61 1.39,-0.61 h 3.3 l -3.75,-19.67 c -0.89,-4.83 -1.74,-9.37 -4.33,-9.37 -0.2,0 -1.44,0 -2.39,0.9 2.3,0.14 2.73,1.94 2.73,2.69 0,1.14 -0.88,1.75 -1.84,1.75 -1.29,0 -2.73,-1.09 -2.73,-3 0,-2.24 2.19,-3.44 4.23,-3.44 2.74,0 4.74,2.94 5.63,4.85 1.59,3.14 2.75,9.15 2.79,9.51 z"
           inkscape:connector-curvature="0"
           style="fill:#000000;stroke-width:0" /><path
           id="path4079"
           d="m 656.67,407.36 0,0.04 0,0.04 0,0.04 0,0.04 0,0.04 0,0.04 0,0.04 0,0.03 0,0.04 -0.01,0.03 0,0.03 0,0.03 0,0.03 -0.01,0.03 0,0.03 0,0.02 -0.01,0.03 0,0.02 -0.01,0.02 0,0.03 -0.02,0.04 -0.01,0.04 -0.02,0.03 -0.02,0.03 -0.02,0.03 -0.02,0.03 -0.03,0.02 -0.03,0.02 -0.03,0.01 -0.04,0.02 -0.04,0.01 -0.05,0.01 -0.04,0.01 -0.03,0.01 -0.03,0 -0.02,0 -0.03,0.01 -0.03,0 -0.03,0 -0.03,0 -0.04,0 -0.03,0.01 -0.04,0 -0.03,0 -0.04,0 -0.04,0 -0.04,0 -0.04,0 -0.05,0 -0.04,0 -0.05,0 c -2.23,-2.2 -5.39,-2.23 -6.82,-2.23 v -1.25 c 0.84,0 3.14,0 5.04,0.96 v -17.76 c 0,-1.16 0,-1.61 -3.48,-1.61 h -1.31 v -1.25 c 0.62,0.03 4.9,0.14 6.2,0.14 1.08,0 5.47,-0.11 6.23,-0.14 v 1.25 h -1.32 c -3.49,0 -3.49,0.45 -3.49,1.61 z"
           inkscape:connector-curvature="0"
           style="fill:#000000;stroke-width:0" /><path
           id="path4081"
           d="m 676.47,407.36 0,0.04 0,0.04 0,0.04 0,0.04 0,0.04 0,0.04 0,0.04 -0.01,0.03 0,0.04 0,0.03 0,0.03 0,0.03 -0.01,0.03 0,0.03 0,0.03 -0.01,0.02 0,0.03 -0.01,0.02 0,0.02 -0.01,0.03 -0.01,0.04 -0.01,0.04 -0.02,0.03 -0.02,0.03 -0.02,0.03 -0.03,0.03 -0.02,0.02 -0.03,0.02 -0.04,0.01 -0.03,0.02 -0.04,0.01 -0.05,0.01 -0.05,0.01 -0.02,0.01 -0.03,0 -0.03,0 -0.03,0.01 -0.03,0 -0.03,0 -0.03,0 -0.03,0 -0.04,0.01 -0.03,0 -0.04,0 -0.03,0 -0.04,0 -0.04,0 -0.05,0 -0.04,0 -0.04,0 -0.05,0 c -2.23,-2.2 -5.39,-2.23 -6.83,-2.23 v -1.25 c 0.85,0 3.14,0 5.05,0.96 v -17.76 c 0,-1.16 0,-1.61 -3.48,-1.61 h -1.32 v -1.25 c 0.63,0.03 4.91,0.14 6.21,0.14 1.07,0 5.47,-0.11 6.23,-0.14 v 1.25 h -1.33 c -3.48,0 -3.48,0.45 -3.48,1.61 z"
           inkscape:connector-curvature="0"
           style="fill:#000000;stroke-width:0" /><path
           id="path4083"
           d="m 710.35,371.82 -10.7,37.38 -6.93,-8.13 0.8,-0.75 3.39,3.98 11.45,-39.95 c 1.64,0 1.69,0 2.1,1.2 l 27.34,86.49 c 0.25,0.75 0.25,0.95 0.25,1 0,0.55 -0.39,1 -0.98,1 -0.75,0 -0.96,-0.66 -1.16,-1.3 z"
           inkscape:connector-curvature="0"
           style="fill:#000000;stroke-width:0" /><polyline
           id="polyline4085"
           points="737,452 917.24,452 917.24,454.04 737,454.04 "
           style="fill:#000000;fill-rule:nonzero;stroke-width:0" /><path
           id="path4087"
           d="m 753.52,380.69 0,0.02 0,0.03 0,0.01 -0.01,0.02 0,0.01 0,0.02 -0.01,0.02 -0.01,0.01 0,0.02 -0.01,0.02 -0.02,0.02 -0.01,0.03 -0.02,0.02 -0.02,0.03 -0.02,0.03 -0.02,0.03 -0.03,0.04 -0.03,0.03 -0.01,0.02 -0.02,0.02 -0.02,0.02 -0.01,0.02 -0.02,0.02 -0.02,0.03 -0.02,0.02 -0.03,0.02 -0.02,0.03 -0.02,0.03 -0.03,0.02 -0.02,0.03 -0.03,0.03 -0.03,0.03 -0.03,0.03 -0.03,0.03 -0.03,0.03 -0.03,0.03 -0.03,0.04 -0.04,0.03 -0.03,0.04 -0.04,0.03 -0.04,0.04 -0.03,0.04 c -6.22,6.28 -7.82,15.69 -7.82,23.31 0,8.68 1.89,17.35 8.02,23.57 0.64,0.61 0.64,0.7 0.64,0.86 0,0.34 -0.19,0.48 -0.49,0.48 -0.5,0 -4.98,-3.38 -7.92,-9.7 -2.54,-5.49 -3.14,-11.02 -3.14,-15.21 0,-3.89 0.55,-9.9 3.28,-15.54 2.99,-6.13 7.28,-9.36 7.78,-9.36 0.3,0 0.49,0.14 0.49,0.5 z"
           inkscape:connector-curvature="0"
           style="fill:#000000;stroke-width:0" /><path
           id="path4089"
           d="m 777.48,415.15 -0.01,-0.07 -0.02,-0.07 -0.02,-0.07 -0.02,-0.08 -0.02,-0.07 -0.01,-0.08 -0.04,-0.16 -0.04,-0.16 -0.04,-0.16 -0.04,-0.16 -0.02,-0.08 -0.02,-0.07 -0.02,-0.08 -0.02,-0.07 -0.02,-0.07 -0.01,-0.07 -0.02,-0.07 -0.01,-0.06 -0.02,-0.06 -0.01,-0.06 -0.01,-0.05 -0.01,-0.05 -0.01,-0.04 -0.01,-0.04 0,-0.04 -0.01,-0.03 0,-0.02 0,-0.02 c 0,-0.77 0.62,-1.11 1.17,-1.11 0.64,0 1.19,0.45 1.36,0.76 0.19,0.31 0.45,1.42 0.64,2.16 0.17,0.65 0.55,2.26 0.77,3.14 0.2,0.76 0.4,1.53 0.59,2.33 0.38,1.5 0.38,1.56 1.08,2.65 1.11,1.71 2.86,3.69 5.56,3.69 1.95,0 2.06,-1.61 2.06,-2.44 0,-2.09 -1.5,-5.95 -2.06,-7.42 -0.37,-0.98 -0.51,-1.3 -0.51,-1.89 0,-1.84 1.53,-2.98 3.31,-2.98 3.48,0 5.01,4.79 5.01,5.32 0,0.46 -0.45,0.46 -0.56,0.46 -0.48,0 -0.51,-0.21 -0.65,-0.6 -0.8,-2.78 -2.3,-4.21 -3.69,-4.21 -0.74,0 -0.88,0.48 -0.88,1.21 0,0.8 0.18,1.25 0.8,2.83 0.42,1.08 1.84,4.77 1.84,6.72 0,0.56 0,2.03 -1.28,3.03 -0.59,0.46 -1.61,0.94 -3.25,0.94 -3.12,0 -5.04,-2.05 -6.15,-3.52 -0.28,2.97 -2.77,3.52 -4.54,3.52 -2.89,0 -4.84,-1.77 -5.89,-3.16 -0.25,2.39 -2.29,3.16 -3.73,3.16 -1.5,0 -2.3,-1.08 -2.75,-1.88 -0.77,-1.28 -1.25,-3.28 -1.25,-3.45 0,-0.45 0.48,-0.45 0.59,-0.45 0.49,0 0.52,0.11 0.77,1.05 0.52,2.06 1.19,3.76 2.55,3.76 0.9,0 1.14,-0.76 1.14,-1.7 0,-0.67 -0.32,-1.96 -0.57,-2.89 -0.23,-0.96 -0.57,-2.38 -0.76,-3.14 l -1.11,-4.47 c -0.14,-0.44 -0.34,-1.31 -0.34,-1.42 0,-0.77 0.62,-1.11 1.18,-1.11 0.63,0 1.17,0.45 1.36,0.76 0.17,0.31 0.46,1.42 0.63,2.16 0.17,0.65 0.54,2.26 0.76,3.14 0.21,0.76 0.42,1.53 0.6,2.33 0.37,1.43 0.45,1.7 1.45,3.14 0.98,1.39 2.63,3.2 5.23,3.2 2.02,0 2.05,-1.78 2.05,-2.44 0,-0.87 -0.09,-1.32 -0.59,-3.28 z"
           inkscape:connector-curvature="0"
           style="fill:#000000;stroke-width:0" /><path
           id="path4091"
           d="m 812.43,427.09 h -1.04 c -0.08,-0.48 -0.33,-2.01 -0.72,-2.26 -0.2,-0.16 -2.3,-0.16 -2.67,-0.16 h -4.88 c 1.64,1.22 3.48,2.61 4.98,3.61 2.24,1.55 4.33,3 4.33,5.64 0,3.19 -3.01,4.96 -6.58,4.96 -3.35,0 -5.82,-1.96 -5.82,-4.4 0,-1.29 1.09,-1.51 1.45,-1.51 0.67,0 1.47,0.45 1.47,1.47 0,0.89 -0.66,1.39 -1.42,1.47 0.69,1.12 2.14,1.87 3.81,1.87 2.41,0 4.42,-1.45 4.42,-3.89 0,-2.09 -1.44,-3.69 -3.36,-5.31 l -6.08,-5.16 c -0.25,-0.22 -0.26,-0.22 -0.29,-0.39 v -0.75 h 11.57 z"
           inkscape:connector-curvature="0"
           style="fill:#000000;stroke-width:0" /><path
           id="path4093"
           d="M 833.34,420.2 H 844 c 0.45,0 1.28,0 1.28,0.84 0,0.86 -0.8,0.86 -1.28,0.86 h -10.66 v 10.7 c 0,0.45 0,1.28 -0.84,1.28 -0.88,0 -0.88,-0.79 -0.88,-1.28 v -10.7 h -10.69 c -0.45,0 -1.29,0 -1.29,-0.83 0,-0.87 0.79,-0.87 1.29,-0.87 h 10.69 v -10.71 c 0,-0.45 0,-1.28 0.85,-1.28 0.87,0 0.87,0.8 0.87,1.28 z"
           inkscape:connector-curvature="0"
           style="fill:#000000;stroke-width:0" /><path
           id="path4095"
           d="m 852.05,414.51 -0.02,-0.04 -0.01,-0.05 -0.01,-0.05 -0.02,-0.04 -0.01,-0.05 -0.02,-0.06 -0.01,-0.05 -0.02,-0.05 -0.03,-0.11 -0.02,-0.12 -0.03,-0.11 -0.03,-0.11 -0.01,-0.05 -0.01,-0.05 -0.01,-0.05 -0.02,-0.05 -0.01,-0.05 -0.01,-0.04 0,-0.05 -0.01,-0.04 -0.01,-0.04 -0.01,-0.03 0,-0.03 -0.01,-0.03 0,-0.02 0,-0.02 -0.01,-0.01 0,-0.01 0,-0.01 0,0 c 0,-0.77 0.63,-1.11 1.19,-1.11 0.63,0 1.17,0.45 1.36,0.76 0.17,0.31 0.45,1.42 0.63,2.16 0.17,0.65 0.54,2.26 0.76,3.14 0.2,0.76 0.42,1.53 0.59,2.33 0.38,1.43 0.46,1.7 1.46,3.14 0.98,1.39 2.62,3.2 5.23,3.2 2.02,0 2.05,-1.78 2.05,-2.44 0,-2.09 -1.49,-5.95 -2.05,-7.42 -0.39,-0.98 -0.53,-1.3 -0.53,-1.89 0,-1.84 1.55,-2.98 3.31,-2.98 3.49,0 5.02,4.79 5.02,5.32 0,0.46 -0.45,0.46 -0.55,0.46 -0.5,0 -0.53,-0.21 -0.67,-0.6 -0.8,-2.78 -2.3,-4.21 -3.69,-4.21 -0.73,0 -0.87,0.48 -0.87,1.21 0,0.8 0.17,1.25 0.79,2.83 0.43,1.08 1.86,4.77 1.86,6.72 0,3.39 -2.68,3.97 -4.53,3.97 -2.89,0 -4.84,-1.77 -5.89,-3.16 -0.25,2.39 -2.29,3.16 -3.73,3.16 -1.5,0 -2.3,-1.08 -2.75,-1.88 -0.77,-1.28 -1.25,-3.28 -1.25,-3.45 0,-0.45 0.48,-0.45 0.59,-0.45 0.49,0 0.52,0.11 0.77,1.05 0.51,2.06 1.18,3.76 2.54,3.76 0.91,0 1.14,-0.76 1.14,-1.7 0,-0.67 -0.31,-1.96 -0.56,-2.89 -0.23,-0.96 -0.58,-2.38 -0.76,-3.14 z"
           inkscape:connector-curvature="0"
           style="fill:#000000;stroke-width:0" /><path
           id="path4097"
           d="m 887.07,427.09 h -1.05 c -0.07,-0.48 -0.32,-2.01 -0.72,-2.26 -0.2,-0.16 -2.29,-0.16 -2.67,-0.16 h -4.87 c 1.64,1.22 3.48,2.61 4.98,3.61 2.24,1.55 4.33,3 4.33,5.64 0,3.19 -3.02,4.96 -6.58,4.96 -3.36,0 -5.83,-1.96 -5.83,-4.4 0,-1.29 1.1,-1.51 1.46,-1.51 0.67,0 1.47,0.45 1.47,1.47 0,0.89 -0.66,1.39 -1.43,1.47 0.69,1.12 2.14,1.87 3.82,1.87 2.4,0 4.42,-1.45 4.42,-3.89 0,-2.09 -1.44,-3.69 -3.36,-5.31 l -6.08,-5.16 c -0.25,-0.22 -0.26,-0.22 -0.3,-0.39 v -0.75 h 11.58 z"
           inkscape:connector-curvature="0"
           style="fill:#000000;stroke-width:0" /><polyline
           id="polyline4099"
           points="762,404 891.48,404 891.48,406.04 762,406.04 "
           style="fill:#000000;fill-rule:nonzero;stroke-width:0" /><path
           id="path4101"
           d="m 834.79,381.82 h -1.19 c -0.09,-0.76 -0.45,-2.82 -0.9,-3.17 -0.27,-0.2 -2.95,-0.2 -3.44,-0.2 h -6.42 c 3.66,3.23 4.88,4.2 6.97,5.84 2.58,2.07 4.98,4.22 4.98,7.53 0,4.22 -3.69,6.8 -8.15,6.8 -4.32,0 -7.25,-3.03 -7.25,-6.23 0,-1.78 1.5,-1.96 1.86,-1.96 0.82,0 1.84,0.6 1.84,1.85 0,0.62 -0.25,1.84 -2.06,1.84 1.07,2.47 3.45,3.24 5.09,3.24 3.48,0 5.3,-2.71 5.3,-5.54 0,-3.03 -2.16,-5.43 -3.28,-6.68 l -8.39,-8.3 c -0.36,-0.31 -0.36,-0.39 -0.36,-1.36 h 14.36 z"
           inkscape:connector-curvature="0"
           style="fill:#000000;stroke-width:0" /><path
           id="path4103"
           d="m 912.23,405.09 0,0.37 -0.01,0.39 -0.01,0.39 -0.01,0.41 -0.04,0.84 -0.06,0.88 -0.08,0.92 -0.11,0.95 -0.13,0.98 -0.16,1 -0.2,1.02 -0.23,1.04 -0.27,1.05 -0.3,1.06 -0.35,1.06 -0.39,1.07 -0.22,0.53 -0.22,0.53 -0.24,0.53 -0.25,0.53 c -2.98,6.13 -7.27,9.36 -7.77,9.36 -0.29,0 -0.5,-0.19 -0.5,-0.48 0,-0.16 0,-0.25 0.94,-1.16 4.89,-4.92 7.73,-12.84 7.73,-23.27 0,-8.51 -1.84,-17.28 -8.03,-23.56 -0.64,-0.59 -0.64,-0.7 -0.64,-0.84 0,-0.3 0.21,-0.5 0.5,-0.5 0.5,0 4.97,3.39 7.92,9.72 2.54,5.47 3.13,11 3.13,15.18 z"
           inkscape:connector-curvature="0"
           style="fill:#000000;stroke-width:0" /></g>    </g>
  </g>
</svg>
