<?xml version="1.0" encoding="UTF-8" standalone="no"?>
<!-- Created with Inkscape (http://www.inkscape.org/) -->
<svg
   xmlns:svg="http://www.w3.org/2000/svg"
   xmlns="http://www.w3.org/2000/svg"
   version="1.0"
   width="105.28001pt"
   height="100.89pt"
   id="svg2">
  <defs
     id="defs4">
    <linearGradient
       id="linearGradient3077">
      <stop
         style="stop-color:#000000;stop-opacity:1"
         offset="0"
         id="stop3079" />
      <stop
         style="stop-color:#000000;stop-opacity:1"
         offset="1"
         id="stop3081" />
    </linearGradient>
  </defs>
  <g
     id="layer1">
    <g
       transform="translate(10,8)"
       id="g7462">
      <path
         d="M 2.9750163,56.476049 L 57.471399,56.476049 L 57.471399,0.99758876 L 2.9750163,56.476049 z "
         style="fill:#8fb3ca;fill-opacity:1;fill-rule:evenodd;stroke:#000000;stroke-width:0;stroke-linecap:butt;stroke-linejoin:miter;stroke-miterlimit:3.20000005;stroke-dasharray:none;stroke-opacity:1"
         id="path3083" />
      <path
         d="M 57.459989,109.74492 L 3.2296547,56.482714 L 57.712223,56.482714 L 57.459989,109.74492 z "
         style="fill:#4b6e9b;fill-opacity:1;fill-rule:evenodd;stroke:#000000;stroke-width:0;stroke-linecap:butt;stroke-linejoin:miter;stroke-miterlimit:0;stroke-dasharray:none;stroke-opacity:1"
         id="path3085" />
      <path
         d="M 109.01094,56.711339 L 57.216693,56.711339 L 57.216693,1.2328789 L 109.01094,56.711339 z "
         style="fill:#4b6e9b;fill-opacity:1;fill-rule:evenodd;stroke:#000000;stroke-width:0;stroke-linecap:butt;stroke-linejoin:miter;stroke-miterlimit:3.20000005;stroke-dasharray:none;stroke-opacity:1"
         id="path3087" />
      <path
         d="M 57.462987,109.73248 L 109.00439,56.470273 L 57.223259,56.470273 L 57.462987,109.73248 z "
         style="fill:#324e74;fill-opacity:1;fill-rule:evenodd;stroke:#000000;stroke-width:0;stroke-linecap:butt;stroke-linejoin:miter;stroke-miterlimit:3.20000005;stroke-dasharray:none;stroke-opacity:1"
         id="path3089" />
    </g>
  </g>
  <g
     id="layer2">
    <path
       d="M 52.917243,43.135944 C 56.638939,37.522463 62.008679,32.765964 77.266209,33.151116 C 87.621913,34.649238 95.221359,43.371765 101.44,49.967668 L 84.448278,57.675255 L 52.917243,43.135944 z "
       style="fill:#02fefc;fill-opacity:1;fill-rule:evenodd;stroke:#000000;stroke-width:2.5999999;stroke-linecap:butt;stroke-linejoin:miter;stroke-miterlimit:4;stroke-dasharray:none;stroke-opacity:1"
       id="path19740" />
    <path
       d="M 85.499313,57.32491 C 95.418536,50.734636 115.82813,46.456983 117.03035,51.018704 C 117.32874,61.074863 111.9407,64.316573 101.61518,66.609049 C 110.119,67.952178 117.73507,71.466963 113.70207,82.024221 C 107.19596,86.591532 93.109996,82.048646 83.922761,79.922152 L 85.499313,57.32491 z "
       style="fill:#02fefc;fill-opacity:1;fill-rule:evenodd;stroke:#000000;stroke-width:2.5999999;stroke-linecap:butt;stroke-linejoin:miter;stroke-miterlimit:4;stroke-dasharray:none;stroke-opacity:1"
       id="path19738" />
    <path
       d="M 57.597508 51.837753 A 11.333703 11.333703 0 1 1  34.930102,51.837753 A 11.333703 11.333703 0 1 1  57.597508 51.837753 z"
       transform="matrix(0.72687,0,0,0.754282,11.30237,10.45666)"
       style="opacity:1;fill:#ffffff;fill-opacity:1;stroke:#140000;stroke-width:2.4000001;stroke-miterlimit:4;stroke-dasharray:none;stroke-dashoffset:0;stroke-opacity:1"
       id="path10966" />
    <path
       d="M 35.301697 40.504051 A 0.99092484 1.4863873 0 1 1  33.319847,40.504051 A 0.99092484 1.4863873 0 1 1  35.301697 40.504051 z"
       transform="translate(9.75227,9.11479)"
       style="opacity:1;fill:#ffffff;fill-opacity:1;stroke:#140000;stroke-width:2.4000001;stroke-miterlimit:4;stroke-dasharray:none;stroke-dashoffset:0;stroke-opacity:1"
       id="path11841" />
    <path
       d="M 60.341712,83.810384 C 58.79567,81.225064 73.350542,79.27395 79.608236,78.548959 C 79.192669,82.94451 81.466407,86.008915 70.756049,88.57072 C 66.784941,89.292197 62.940966,87.285619 60.341712,83.810384 z "
       style="fill:#02fefc;fill-opacity:1;fill-rule:evenodd;stroke:#000000;stroke-width:2.5999999;stroke-linecap:butt;stroke-linejoin:miter;stroke-miterlimit:4;stroke-dasharray:none;stroke-opacity:1"
       id="path11843" />
    <path
       d="M 23.749082,56.926912 C 28.332109,61.262208 31.383576,65.440119 36.011777,70.304398 C 35.855785,72.559204 34.595312,80.109865 35.499239,80.492543 C 41.105014,82.865751 51.640132,84.195767 59.05078,84.548942 C 65.725735,78.933626 75.581669,79.640744 83.823901,78.727259 C 88.070852,73.653019 90.391593,68.028434 90.017181,61.633805 C 78.162105,54.842674 66.981592,42.13955 52.485903,43.673293 C 54.654684,50.158598 53.908153,54.157173 48.150607,57.670105 C 41.925005,59.496704 38.701438,56.390133 35.887912,50.485901 C 31.971989,51.496845 27.655042,54.173882 23.749082,56.926912 z "
       style="opacity:1;fill:#ffff00;fill-opacity:1;fill-rule:evenodd;stroke:#000000;stroke-width:1.60000002;stroke-linecap:butt;stroke-linejoin:miter;stroke-miterlimit:4;stroke-dasharray:none;stroke-opacity:1"
       id="path13591" />
    <rect
       width="2.5509419"
       height="2.7675731"
       rx="0"
       ry="13.191688"
       x="57.961109"
       y="53.499344"
       style="opacity:1;fill:#000000;fill-opacity:1;stroke:#000000;stroke-width:0.23569293;stroke-miterlimit:4;stroke-dasharray:none;stroke-dashoffset:0;stroke-opacity:1"
       id="rect17085" />
    <rect
       width="2.5509419"
       height="2.7675731"
       rx="0"
       ry="13.191688"
       x="62.959511"
       y="50.461449"
       style="opacity:1;fill:#000000;fill-opacity:1;stroke:#000000;stroke-width:0.23569293;stroke-miterlimit:4;stroke-dasharray:none;stroke-dashoffset:0;stroke-opacity:1"
       id="rect17960" />
    <rect
       width="2.5509419"
       height="2.7675731"
       rx="0"
       ry="13.191688"
       x="62.977665"
       y="55.331696"
       style="opacity:1;fill:#000000;fill-opacity:1;stroke:#000000;stroke-width:0.23569293;stroke-miterlimit:4;stroke-dasharray:none;stroke-dashoffset:0;stroke-opacity:1"
       id="rect17962" />
    <rect
       width="2.5509419"
       height="2.7675731"
       rx="0"
       ry="13.191688"
       x="67.96859"
       y="53.455563"
       style="opacity:1;fill:#000000;fill-opacity:1;stroke:#000000;stroke-width:0.23569293;stroke-miterlimit:4;stroke-dasharray:none;stroke-dashoffset:0;stroke-opacity:1"
       id="rect17964" />
    <rect
       width="2.5509419"
       height="2.7675731"
       rx="0"
       ry="13.191688"
       x="67.932281"
       y="58.392036"
       style="opacity:1;fill:#000000;fill-opacity:1;stroke:#000000;stroke-width:0.23569293;stroke-miterlimit:4;stroke-dasharray:none;stroke-dashoffset:0;stroke-opacity:1"
       id="rect17966" />
    <rect
       width="2.5509419"
       height="2.7675731"
       rx="0"
       ry="13.191688"
       x="73.010773"
       y="58.268166"
       style="opacity:1;fill:#000000;fill-opacity:1;stroke:#000000;stroke-width:0.23569293;stroke-miterlimit:4;stroke-dasharray:none;stroke-dashoffset:0;stroke-opacity:1"
       id="rect17968" />
    <rect
       width="2.5509419"
       height="2.7675731"
       rx="0"
       ry="13.191688"
       x="73.010773"
       y="63.470524"
       style="opacity:1;fill:#000000;fill-opacity:1;stroke:#000000;stroke-width:0.23569293;stroke-miterlimit:4;stroke-dasharray:none;stroke-dashoffset:0;stroke-opacity:1"
       id="rect17970" />
    <rect
       width="2.5509419"
       height="2.7675731"
       rx="0"
       ry="13.191688"
       x="67.932281"
       y="63.470528"
       style="opacity:1;fill:#000000;fill-opacity:1;stroke:#000000;stroke-width:0.23569293;stroke-miterlimit:4;stroke-dasharray:none;stroke-dashoffset:0;stroke-opacity:1"
       id="rect17972" />
    <rect
       width="2.5509419"
       height="2.7675731"
       rx="0"
       ry="13.191688"
       x="68.056152"
       y="68.549011"
       style="opacity:1;fill:#000000;fill-opacity:1;stroke:#000000;stroke-width:0.23569293;stroke-miterlimit:4;stroke-dasharray:none;stroke-dashoffset:0;stroke-opacity:1"
       id="rect17974" />
    <rect
       width="2.5509419"
       height="2.7675731"
       rx="0"
       ry="13.191688"
       x="73.01078"
       y="68.425148"
       style="opacity:1;fill:#000000;fill-opacity:1;stroke:#000000;stroke-width:0.23569293;stroke-miterlimit:4;stroke-dasharray:none;stroke-dashoffset:0;stroke-opacity:1"
       id="rect17976" />
    <rect
       width="2.5509419"
       height="2.7675731"
       rx="0"
       ry="13.191688"
       x="77.965408"
       y="70.406998"
       style="opacity:1;fill:#000000;fill-opacity:1;stroke:#000000;stroke-width:0.23569293;stroke-miterlimit:4;stroke-dasharray:none;stroke-dashoffset:0;stroke-opacity:1"
       id="rect17978" />
    <rect
       width="2.5509419"
       height="2.7675731"
       rx="0"
       ry="13.191688"
       x="77.965401"
       y="65.45237"
       style="opacity:1;fill:#000000;fill-opacity:1;stroke:#000000;stroke-width:0.23569293;stroke-miterlimit:4;stroke-dasharray:none;stroke-dashoffset:0;stroke-opacity:1"
       id="rect17980" />
    <rect
       width="2.5509419"
       height="2.7675731"
       rx="0"
       ry="13.191688"
       x="82.920029"
       y="68.301277"
       style="opacity:1;fill:#000000;fill-opacity:1;stroke:#000000;stroke-width:0.23569293;stroke-miterlimit:4;stroke-dasharray:none;stroke-dashoffset:0;stroke-opacity:1"
       id="rect17982" />
    <rect
       width="2.5509419"
       height="2.7675731"
       rx="0"
       ry="13.191688"
       x="82.920029"
       y="63.470524"
       style="opacity:1;fill:#000000;fill-opacity:1;stroke:#000000;stroke-width:0.23569293;stroke-miterlimit:4;stroke-dasharray:none;stroke-dashoffset:0;stroke-opacity:1"
       id="rect17984" />
    <rect
       width="2.5509419"
       height="2.7675731"
       rx="0"
       ry="13.191688"
       x="77.965408"
       y="60.373882"
       style="opacity:1;fill:#000000;fill-opacity:1;stroke:#000000;stroke-width:0.23569293;stroke-miterlimit:4;stroke-dasharray:none;stroke-dashoffset:0;stroke-opacity:1"
       id="rect17986" />
    <path
       d="M 52.479312,66.258703 L 63.077243,66.346289 L 55.106898,77.119393 L 47.837243,76.769048"
       style="fill:#00ffff;fill-opacity:1;fill-rule:evenodd;stroke:#000000;stroke-width:1px;stroke-linecap:butt;stroke-linejoin:miter;stroke-opacity:1"
       id="path17988" />
    <path
       d="M 36.263413,71.009611 C 32.903182,65.106282 25.96593,59.278884 23.796116,57.439973 C 22.812752,57.78243 16.73326,60.296798 17.792594,62.788956 C 20.657867,67.14822 27.014831,70.886921 29.414082,73.090428 C 26.215478,73.998857 22.433114,75.907206 23.821014,78.366852 C 24.617515,79.49519 25.605214,81.49726 27.124392,81.169611 C 31.00983,78.609719 34.071179,79.007433 36.058185,76.439956 L 36.263413,71.009611 z "
       style="fill:#02fefc;fill-opacity:1;fill-rule:evenodd;stroke:#000000;stroke-width:2.4000001;stroke-linecap:butt;stroke-linejoin:miter;stroke-miterlimit:4;stroke-dasharray:none;stroke-opacity:1"
       id="path7470" />
  </g>
</svg>
