<?xml version="1.0" encoding="UTF-8" standalone="no"?>
<!-- Created with Inkscape (http://www.inkscape.org/) -->

<svg
   xmlns:dc="http://purl.org/dc/elements/1.1/"
   xmlns:cc="http://creativecommons.org/ns#"
   xmlns:rdf="http://www.w3.org/1999/02/22-rdf-syntax-ns#"
   xmlns:svg="http://www.w3.org/2000/svg"
   xmlns="http://www.w3.org/2000/svg"
   xmlns:xlink="http://www.w3.org/1999/xlink"
   xmlns:sodipodi="http://sodipodi.sourceforge.net/DTD/sodipodi-0.dtd"
   xmlns:inkscape="http://www.inkscape.org/namespaces/inkscape"
   id="svg2"
   version="1.1"
   inkscape:version="0.48.5 r10040"
   width="200"
   height="200"
   sodipodi:docname="Music-eighthnote.svg">
  <metadata
     id="metadata8">
    <rdf:RDF>
      <cc:Work
         rdf:about="">
        <dc:format>image/svg+xml</dc:format>
        <dc:type
           rdf:resource="http://purl.org/dc/dcmitype/StillImage" />
        <dc:title></dc:title>
      </cc:Work>
    </rdf:RDF>
  </metadata>
  <defs
     id="defs6">
    <linearGradient
       id="linearGradient3770">
      <stop
         style="stop-color:#c8c8c8;stop-opacity:1;"
         offset="0"
         id="stop3772" />
      <stop
         style="stop-color:#808080;stop-opacity:0;"
         offset="1"
         id="stop3774" />
    </linearGradient>
    <linearGradient
       inkscape:collect="always"
       xlink:href="#linearGradient3770"
       id="linearGradient3776"
       x1="128.52232"
       y1="90.721649"
       x2="128.52232"
       y2="159.45016"
       gradientUnits="userSpaceOnUse"
       gradientTransform="translate(19.021186,-150.19511)" />
  </defs>
  <sodipodi:namedview
     pagecolor="#ffffff"
     bordercolor="#666666"
     borderopacity="1"
     objecttolerance="10"
     gridtolerance="10"
     guidetolerance="10"
     inkscape:pageopacity="0"
     inkscape:pageshadow="2"
     inkscape:window-width="1440"
     inkscape:window-height="834"
     id="namedview4"
     showgrid="false"
     showguides="true"
     inkscape:guide-bbox="true"
     inkscape:object-nodes="false"
     inkscape:zoom="1.455"
     inkscape:cx="-99.672319"
     inkscape:cy="117.3622"
     inkscape:window-x="0"
     inkscape:window-y="27"
     inkscape:window-maximized="1"
     inkscape:current-layer="svg2">
    <sodipodi:guide
       orientation="1,0"
       position="0,43.25258"
       id="guide3770" />
    <sodipodi:guide
       orientation="1,0"
       position="199.98243,27.70109"
       id="guide3772" />
  </sodipodi:namedview>
  <rect
     style="fill:url(#linearGradient3776);fill-opacity:1;fill-rule:nonzero;stroke:none"
     id="rect2992"
     width="19.960325"
     height="72.740829"
     x="133.79781"
     y="-62.222603"
     transform="matrix(0.55014642,0.83506821,-0.83506821,0.55014642,0,0)" />
  <g
     id="g3782"
     transform="translate(-143.36529,7.6738959)">
    <rect
       y="41.872944"
       x="143.3653"
       height="3.7056284"
       width="199.98244"
       id="rect3768"
       style="opacity:0.27165354;fill:#000000;stroke:none" />
    <rect
       style="opacity:0.27165354;fill:#000000;stroke:none"
       id="rect3774"
       width="199.98244"
       height="3.7056284"
       x="143.3653"
       y="65.756111" />
    <rect
       y="89.811096"
       x="143.4512"
       height="3.7056284"
       width="199.98244"
       id="rect3776"
       style="opacity:0.27165354;fill:#000000;stroke:none" />
    <rect
       style="opacity:0.27165354;fill:#000000;stroke:none"
       id="rect3778"
       width="199.98244"
       height="3.7056284"
       x="143.3653"
       y="113.86608" />
    <rect
       y="137.83514"
       x="143.3653"
       height="3.7056284"
       width="199.98244"
       id="rect3780"
       style="opacity:0.27165354;fill:#000000;stroke:none" />
    <path
       sodipodi:nodetypes="ccssscccccc"
       inkscape:connector-curvature="0"
       id="rect2987"
       d="m 202.30279,43.363271 0,74.531249 c -2.19436,-3.1329 -11.11823,-3.60474 -17.375,-0.15625 -7.41543,4.0871 -10.79756,11.75107 -7.5625,17.125 3.23507,5.37393 11.86582,6.43085 19.28125,2.34375 4.45154,-2.45352 7.41871,-6.2048 8.40625,-9.96875 0.45244,-2.06878 0.18854,-3.14209 0.15625,-4.59375 l 0,-52.656249 c 32.53399,8.241492 17.51919,36.811079 14.59268,46.902749 26.72779,-36.505741 -14.22819,-51.395935 -14.59268,-73.527749 z"
       style="fill:#808080;fill-rule:evenodd;stroke:none" />
    <path
       style="fill:#ff0000;fill-rule:evenodd;stroke:none"
       d="m 284.77702,-5.4339799 0,74.5312489 c -2.19436,-3.1329 -11.11823,-3.60474 -17.375,-0.15625 -7.41543,4.0871 -10.79756,11.75107 -7.5625,17.125 3.23507,5.37393 11.86582,6.43085 19.28125,2.34375 4.45154,-2.45352 7.41871,-6.2048 8.40625,-9.96875 0.45244,-2.06878 0.18854,-3.14209 0.15625,-4.59375 l 0,-52.656249 c 32.53399,8.241492 17.51919,36.811079 14.59268,46.902749 26.72779,-36.505741 -14.22819,-51.395935 -14.59268,-73.5277489 z"
       id="path2990"
       inkscape:connector-curvature="0"
       sodipodi:nodetypes="ccssscccccc" />
  </g>
</svg>
