<?xml version="1.0" encoding="UTF-8" standalone="no"?>
<!-- Created with Inkscape (http://www.inkscape.org/) -->

<svg
   xmlns:dc="http://purl.org/dc/elements/1.1/"
   xmlns:cc="http://creativecommons.org/ns#"
   xmlns:rdf="http://www.w3.org/1999/02/22-rdf-syntax-ns#"
   xmlns:svg="http://www.w3.org/2000/svg"
   xmlns="http://www.w3.org/2000/svg"
   xmlns:xlink="http://www.w3.org/1999/xlink"
   xmlns:sodipodi="http://sodipodi.sourceforge.net/DTD/sodipodi-0.dtd"
   xmlns:inkscape="http://www.inkscape.org/namespaces/inkscape"
   width="423.57141"
   height="297.59747"
   id="svg2"
   version="1.1"
   inkscape:version="0.48.5 r10040"
   sodipodi:docname="forces-graph.svg"
   inkscape:export-filename="/home/nicola/Documents/repos/game-sound-sae2017/images/2017-12/stick-slip/forces-graph-2.png"
   inkscape:export-xdpi="108.78922"
   inkscape:export-ydpi="108.78922">
  <sodipodi:namedview
     id="base"
     pagecolor="#ffffff"
     bordercolor="#666666"
     borderopacity="1.0"
     inkscape:pageopacity="1"
     inkscape:pageshadow="2"
     inkscape:zoom="0.90509668"
     inkscape:cx="219.46035"
     inkscape:cy="40.847546"
     inkscape:document-units="px"
     inkscape:current-layer="svg2"
     showgrid="false"
     showguides="true"
     inkscape:guide-bbox="true"
     inkscape:window-width="1440"
     inkscape:window-height="834"
     inkscape:window-x="0"
     inkscape:window-y="27"
     inkscape:window-maximized="1"
     fit-margin-top="0"
     fit-margin-left="0"
     fit-margin-right="0"
     fit-margin-bottom="0">
    <sodipodi:guide
       orientation="1,0"
       position="180.59924,106.07834"
       id="guide6097" />
    <sodipodi:guide
       orientation="0,1"
       position="308.88861,141.93876"
       id="guide6099" />
    <sodipodi:guide
       orientation="0,1"
       position="477.09822,170.51546"
       id="guide6916" />
  </sodipodi:namedview>
  <defs
     id="defs4">
    <marker
       inkscape:stockid="DotM"
       orient="auto"
       refY="0"
       refX="0"
       id="DotM"
       style="overflow:visible">
      <path
         id="path5298"
         d="m -2.5,-1 c 0,2.76 -2.24,5 -5,5 -2.76,0 -5,-2.24 -5,-5 0,-2.76 2.24,-5 5,-5 2.76,0 5,2.24 5,5 z"
         style="fill-rule:evenodd;stroke:#000000;stroke-width:1pt"
         transform="matrix(0.4,0,0,0.4,2.96,0.4)"
         inkscape:connector-curvature="0" />
    </marker>
    <marker
       inkscape:stockid="Arrow1Mend"
       orient="auto"
       refY="0"
       refX="0"
       id="Arrow1Mend"
       style="overflow:visible">
      <path
         id="path5243"
         d="M 0,0 5,-5 -12.5,0 5,5 0,0 z"
         style="fill-rule:evenodd;stroke:#000000;stroke-width:1pt"
         transform="matrix(-0.4,0,0,-0.4,-4,0)"
         inkscape:connector-curvature="0" />
    </marker>
    <marker
       inkscape:stockid="DotL"
       orient="auto"
       refY="0"
       refX="0"
       id="DotL"
       style="overflow:visible">
      <path
         id="path5295"
         d="m -2.5,-1 c 0,2.76 -2.24,5 -5,5 -2.76,0 -5,-2.24 -5,-5 0,-2.76 2.24,-5 5,-5 2.76,0 5,2.24 5,5 z"
         style="fill-rule:evenodd;stroke:#000000;stroke-width:1pt"
         transform="matrix(0.8,0,0,0.8,5.92,0.8)"
         inkscape:connector-curvature="0" />
    </marker>
    <pattern
       inkscape:collect="always"
       xlink:href="#Strips1_4"
       id="pattern5205"
       patternTransform="matrix(2.9405742,1.6540734,-2.96254,5.2667364,-0.24999849,81.783408)" />
    <pattern
       inkscape:stockid="Stripes 1:4"
       id="Strips1_4"
       patternTransform="translate(0,0) scale(10,10)"
       height="1"
       width="5"
       patternUnits="userSpaceOnUse"
       inkscape:collect="always">
      <rect
         id="rect4500"
         height="2"
         width="1"
         y="-0.5"
         x="0"
         style="fill:black;stroke:none" />
    </pattern>
    <marker
       inkscape:stockid="DotM"
       orient="auto"
       refY="0"
       refX="0"
       id="DotM-3"
       style="overflow:visible">
      <path
         inkscape:connector-curvature="0"
         id="path5298-6"
         d="m -2.5,-1 c 0,2.76 -2.24,5 -5,5 -2.76,0 -5,-2.24 -5,-5 0,-2.76 2.24,-5 5,-5 2.76,0 5,2.24 5,5 z"
         style="fill-rule:evenodd;stroke:#000000;stroke-width:1pt"
         transform="matrix(0.4,0,0,0.4,2.96,0.4)" />
    </marker>
    <marker
       inkscape:stockid="Arrow1Mend"
       orient="auto"
       refY="0"
       refX="0"
       id="Arrow1Mend-7"
       style="overflow:visible">
      <path
         inkscape:connector-curvature="0"
         id="path5243-5"
         d="M 0,0 5,-5 -12.5,0 5,5 0,0 z"
         style="fill-rule:evenodd;stroke:#000000;stroke-width:1pt"
         transform="matrix(-0.4,0,0,-0.4,-4,0)" />
    </marker>
    <marker
       inkscape:stockid="DotM"
       orient="auto"
       refY="0"
       refX="0"
       id="DotM-35"
       style="overflow:visible">
      <path
         inkscape:connector-curvature="0"
         id="path5298-62"
         d="m -2.5,-1 c 0,2.76 -2.24,5 -5,5 -2.76,0 -5,-2.24 -5,-5 0,-2.76 2.24,-5 5,-5 2.76,0 5,2.24 5,5 z"
         style="fill-rule:evenodd;stroke:#000000;stroke-width:1pt"
         transform="matrix(0.4,0,0,0.4,2.96,0.4)" />
    </marker>
    <marker
       inkscape:stockid="Arrow1Mend"
       orient="auto"
       refY="0"
       refX="0"
       id="Arrow1Mend-9"
       style="overflow:visible">
      <path
         inkscape:connector-curvature="0"
         id="path5243-1"
         d="M 0,0 5,-5 -12.5,0 5,5 0,0 z"
         style="fill-rule:evenodd;stroke:#000000;stroke-width:1pt"
         transform="matrix(-0.4,0,0,-0.4,-4,0)" />
    </marker>
    <marker
       inkscape:stockid="DotM"
       orient="auto"
       refY="0"
       refX="0"
       id="DotM-2"
       style="overflow:visible">
      <path
         inkscape:connector-curvature="0"
         id="path5298-7"
         d="m -2.5,-1 c 0,2.76 -2.24,5 -5,5 -2.76,0 -5,-2.24 -5,-5 0,-2.76 2.24,-5 5,-5 2.76,0 5,2.24 5,5 z"
         style="fill-rule:evenodd;stroke:#000000;stroke-width:1pt"
         transform="matrix(0.4,0,0,0.4,2.96,0.4)" />
    </marker>
    <marker
       inkscape:stockid="Arrow1Mend"
       orient="auto"
       refY="0"
       refX="0"
       id="Arrow1Mend-0"
       style="overflow:visible">
      <path
         inkscape:connector-curvature="0"
         id="path5243-9"
         d="M 0,0 5,-5 -12.5,0 5,5 0,0 z"
         style="fill-rule:evenodd;stroke:#000000;stroke-width:1pt"
         transform="matrix(-0.4,0,0,-0.4,-4,0)" />
    </marker>
  </defs>
  <metadata
     id="metadata7">
    <rdf:RDF>
      <cc:Work
         rdf:about="">
        <dc:format>image/svg+xml</dc:format>
        <dc:type
           rdf:resource="http://purl.org/dc/dcmitype/StillImage" />
        <dc:title></dc:title>
      </cc:Work>
    </rdf:RDF>
  </metadata>
  <g
     inkscape:label="terra"
     inkscape:groupmode="layer"
     id="layer1"
     style="opacity:0.3;display:inline"
     transform="translate(-74.464283,-5.7489096)">
    <g
       id="g6836"
       transform="translate(34,0)">
      <path
         inkscape:connector-curvature="0"
         id="path2985"
         d="m 41.178563,210.21932 422.142857,0"
         style="fill:none;stroke:#000000;stroke-width:1px;stroke-linecap:butt;stroke-linejoin:miter;stroke-opacity:1" />
      <rect
         rx="0"
         ry="0"
         y="210.07646"
         x="40.464283"
         height="25.714306"
         width="423.57141"
         id="rect2987"
         style="fill:url(#pattern5205);fill-opacity:1;fill-rule:nonzero;stroke:none" />
    </g>
  </g>
  <g
     inkscape:groupmode="layer"
     id="layer2"
     inkscape:label="block"
     style="display:inline"
     transform="translate(-74.464283,-5.7489096)">
    <rect
       style="fill:#c8c8c8;fill-opacity:1;fill-rule:nonzero;stroke:none;display:inline"
       id="rect5207"
       width="174.25133"
       height="95.964493"
       x="168.24057"
       y="112.49578" />
  </g>
  <g
     inkscape:groupmode="layer"
     id="layer3"
     inkscape:label="forces"
     style="display:inline"
     transform="translate(-74.464283,-5.7489096)">
    <path
       sodipodi:nodetypes="cc"
       inkscape:connector-curvature="0"
       id="path6101"
       d="m 253.2378,161.40763 -115.21428,0"
       style="fill:none;stroke:#000000;stroke-width:1px;stroke-linecap:butt;stroke-linejoin:miter;stroke-opacity:1;marker-start:none;marker-end:url(#Arrow1Mend);display:inline" />
    <path
       style="fill:none;stroke:#000000;stroke-width:1;stroke-linecap:butt;stroke-linejoin:miter;stroke-miterlimit:4;stroke-opacity:1;stroke-dasharray:none;marker-start:none;marker-end:url(#Arrow1Mend);display:inline"
       d="m 255.06352,161.40763 0,-95.214277"
       id="path6293"
       inkscape:connector-curvature="0"
       sodipodi:nodetypes="cc" />
    <path
       sodipodi:nodetypes="cc"
       inkscape:connector-curvature="0"
       id="path6295"
       d="m 255.06352,161.44335 0,95.21428"
       style="fill:none;stroke:#000000;stroke-width:1;stroke-linecap:butt;stroke-linejoin:miter;stroke-miterlimit:4;stroke-opacity:1;stroke-dasharray:none;marker-start:none;marker-end:url(#Arrow1Mend);display:inline" />
    <g
       id="g6426"
       transform="translate(-222.62815,-224.93354)">
      <g
         word-spacing="normal"
         letter-spacing="normal"
         font-size-adjust="none"
         font-stretch="normal"
         font-weight="normal"
         font-variant="normal"
         font-style="normal"
         stroke-miterlimit="10.433"
         xml:space="preserve"
         transform="matrix(1.0629921,0,0,-1.0629921,-186.02362,789.27165)"
         id="content"
         style="font-style:normal;font-variant:normal;font-weight:normal;font-stretch:normal;letter-spacing:normal;word-spacing:normal;text-anchor:start;fill:none;stroke:#000000;stroke-linecap:butt;stroke-linejoin:miter;stroke-miterlimit:10.43299961;stroke-opacity:1;stroke-dasharray:none;stroke-dashoffset:0"><path
           id="path6429"
           d="m 494.15,448.44 -0.07,-0.06 -0.07,-0.07 -0.08,-0.07 -0.08,-0.07 -0.08,-0.08 -0.09,-0.08 -0.09,-0.09 -0.1,-0.08 -0.09,-0.09 -0.1,-0.09 -0.2,-0.19 -0.19,-0.2 -0.19,-0.2 -0.09,-0.11 -0.09,-0.1 -0.09,-0.1 -0.08,-0.1 -0.08,-0.11 -0.08,-0.1 -0.07,-0.1 -0.07,-0.1 -0.05,-0.1 -0.06,-0.1 -0.04,-0.1 -0.04,-0.09 -0.03,-0.09 -0.03,-0.09 -0.01,-0.09 -0.01,-0.09 c 0,-0.5 0.5,-1 1,-1 0.46,0 0.71,0.36 0.96,0.66 0.59,0.75 1.73,2.14 3.94,3.23 0.34,0.21 0.84,0.46 0.84,1.05 0,0.5 -0.34,0.75 -0.7,1 -1.1,0.75 -1.64,1.64 -2.05,2.83 -0.09,0.45 -0.3,1.11 -0.99,1.11 -0.7,0 -1,-0.66 -1,-1.05 0,-0.25 0.4,-1.84 1.19,-2.89 h -16.78 c -0.84,0 -1.75,0 -1.75,-1 0,-1 0.91,-1 1.75,-1 z"
           inkscape:connector-curvature="0"
           style="fill:#000000;stroke-width:0" /><path
           id="path6431"
           d="m 470.61,422.39 h 4.83 c 3.75,0 4.14,-0.8 4.14,-2.24 0,-0.36 0,-0.95 -0.34,-2.44 -0.11,-0.25 -0.16,-0.45 -0.16,-0.56 0,-0.39 0.3,-0.59 0.6,-0.59 0.5,0 0.5,0.15 0.75,1.05 l 2.75,10.81 c 0.14,0.54 0.14,0.65 0.14,0.79 0,0.1 -0.1,0.55 -0.6,0.55 -0.5,0 -0.54,-0.25 -0.75,-1.05 -1.04,-3.87 -2.18,-4.78 -6.42,-4.78 h -4.53 l 3.19,12.66 c 0.43,1.75 0.5,1.94 2.68,1.94 h 6.58 c 6.13,0 7.27,-1.64 7.27,-5.47 0,-1.16 0,-1.35 -0.14,-2.7 -0.11,-0.65 -0.11,-0.74 -0.11,-0.9 0,-0.25 0.15,-0.59 0.61,-0.59 0.54,0 0.59,0.3 0.69,1.25 l 1,8.61 c 0.15,1.34 -0.1,1.34 -1.35,1.34 h -24.4 c -1,0 -1.5,0 -1.5,-1 0,-0.54 0.45,-0.54 1.39,-0.54 1.84,0 3.23,0 3.23,-0.89 0,-0.21 0,-0.3 -0.25,-1.21 l -6.56,-26.34 c -0.5,-1.95 -0.61,-2.34 -4.55,-2.34 -0.84,0 -1.39,0 -1.39,-0.96 0,-0.59 0.59,-0.59 0.75,-0.59 1.44,0 5.13,0.16 6.58,0.16 1.64,0 5.78,-0.16 7.42,-0.16 0.45,0 1.05,0 1.05,0.95 0,0.39 -0.3,0.49 -0.3,0.55 -0.16,0.05 -0.25,0.05 -1.39,0.05 -1.11,0 -1.36,0 -2.59,0.09 -1.46,0.16 -1.6,0.36 -1.6,1 0,0.09 0,0.41 0.19,1.14 z"
           inkscape:connector-curvature="0"
           style="fill:#000000;stroke-width:0" /><path
           id="path6433"
           d="m 502.26,412.07 -0.07,0.11 -0.07,0.11 -0.08,0.1 -0.07,0.1 -0.09,0.1 -0.08,0.1 -0.09,0.09 -0.08,0.1 -0.1,0.09 -0.09,0.08 -0.1,0.09 -0.1,0.08 -0.1,0.08 -0.1,0.08 -0.11,0.07 -0.11,0.08 -0.12,0.06 -0.11,0.07 -0.12,0.06 -0.12,0.05 -0.13,0.06 -0.13,0.05 -0.13,0.04 -0.13,0.04 -0.13,0.04 -0.14,0.03 -0.14,0.03 -0.15,0.02 -0.14,0.02 -0.15,0.01 -0.16,0.01 -0.15,0 v -0.97 c 2.44,0 3.11,-2.64 3.11,-3.03 0,-0.14 -0.08,-0.39 -0.11,-0.48 l -1.64,-6.52 c -0.24,-0.98 -1,-1.67 -1.77,-2.34 -0.31,-0.27 -1.72,-1.39 -3.22,-1.39 -1.28,0 -2.53,0.9 -2.53,3.37 0,1.86 1,5.69 1.81,7.08 1.6,2.8 3.38,3.31 4.35,3.31 v 0.97 c -4.46,0 -8.99,-4.91 -8.99,-9.92 0,-3.38 2.27,-5.78 5.27,-5.78 1.87,0 3.55,1.08 4.94,2.44 0.67,-2.1 2.68,-2.44 3.59,-2.44 1.25,0 2.13,0.76 2.75,1.84 0.77,1.36 1.22,3.35 1.22,3.49 0,0.45 -0.45,0.45 -0.55,0.45 -0.5,0 -0.53,-0.14 -0.76,-1.08 -0.43,-1.67 -1.1,-3.73 -2.55,-3.73 -0.91,0 -1.16,0.76 -1.16,1.7 0,0.59 0.28,1.86 0.53,2.77 0.24,0.93 0.6,2.35 0.77,3.12 l 0.69,2.66 c 0.22,0.9 0.62,2.54 0.62,2.72 0,0.76 -0.62,1.1 -1.17,1.1 -0.59,0 -1.41,-0.42 -1.61,-1.39 z"
           inkscape:connector-curvature="0"
           style="fill:#000000;stroke-width:0" /></g>    </g>
    <g
       id="g6587"
       transform="translate(-39.189226,-300.52039)">
      <g
         word-spacing="normal"
         letter-spacing="normal"
         font-size-adjust="none"
         font-stretch="normal"
         font-weight="normal"
         font-variant="normal"
         font-style="normal"
         stroke-miterlimit="10.433"
         xml:space="preserve"
         transform="matrix(1.0629921,0,0,-1.0629921,-186.02362,789.27165)"
         id="g6589"
         style="font-style:normal;font-variant:normal;font-weight:normal;font-stretch:normal;letter-spacing:normal;word-spacing:normal;text-anchor:start;fill:none;stroke:#000000;stroke-linecap:butt;stroke-linejoin:miter;stroke-miterlimit:10.43299961;stroke-opacity:1;stroke-dasharray:none;stroke-dashoffset:0"><path
           id="path6591"
           d="m 492.95,448.44 -0.07,-0.06 -0.07,-0.07 -0.08,-0.07 -0.08,-0.07 -0.08,-0.08 -0.09,-0.08 -0.09,-0.09 -0.1,-0.08 -0.09,-0.09 -0.1,-0.09 -0.19,-0.19 -0.2,-0.2 -0.19,-0.2 -0.09,-0.11 -0.09,-0.1 -0.09,-0.1 -0.08,-0.1 -0.08,-0.11 -0.08,-0.1 -0.07,-0.1 -0.07,-0.1 -0.05,-0.1 -0.06,-0.1 -0.04,-0.1 -0.04,-0.09 -0.03,-0.09 -0.03,-0.09 -0.01,-0.09 0,-0.09 c 0,-0.5 0.5,-1 1,-1 0.45,0 0.7,0.36 0.95,0.66 0.59,0.75 1.73,2.14 3.94,3.23 0.34,0.21 0.84,0.46 0.84,1.05 0,0.5 -0.34,0.75 -0.7,1 -1.1,0.75 -1.64,1.64 -2.05,2.83 -0.09,0.45 -0.3,1.11 -0.98,1.11 -0.71,0 -1,-0.66 -1,-1.05 0,-0.25 0.39,-1.84 1.18,-2.89 h -16.78 c -0.84,0 -1.75,0 -1.75,-1 0,-1 0.91,-1 1.75,-1 z"
           inkscape:connector-curvature="0"
           style="fill:#000000;stroke-width:0" /><path
           id="path6593"
           d="m 493.19,435 0.1,0.37 0.05,0.18 0.06,0.17 0.06,0.18 0.07,0.17 0.07,0.16 0.08,0.16 0.08,0.16 0.09,0.16 0.1,0.15 0.1,0.14 0.12,0.14 0.12,0.14 0.13,0.13 0.15,0.12 0.15,0.12 0.16,0.11 0.18,0.11 0.18,0.11 0.2,0.09 0.21,0.09 0.23,0.09 0.23,0.07 0.26,0.07 0.26,0.07 0.28,0.05 0.3,0.05 0.31,0.04 0.33,0.04 0.35,0.03 0.18,0.01 0.19,0 c 0.25,0 0.84,0.05 0.84,1 0,0.05 0,0.55 -0.64,0.55 -1.66,0 -3.39,-0.16 -5.03,-0.16 -1.7,0 -3.44,0.16 -5.1,0.16 -0.29,0 -0.89,0 -0.89,-1 0,-0.55 0.5,-0.55 0.89,-0.55 2.85,-0.04 3.4,-1.09 3.4,-2.18 0,-0.16 -0.1,-0.91 -0.15,-1.05 l -5.57,-22.17 -11.02,26 c -0.41,0.9 -0.45,0.95 -1.59,0.95 h -6.67 c -1,0 -1.46,0 -1.46,-1 0,-0.55 0.46,-0.55 1.39,-0.55 0.25,0 3.39,0 3.39,-0.45 l -6.67,-26.75 c -0.5,-2 -1.34,-3.59 -5.37,-3.73 -0.32,0 -0.86,-0.05 -0.86,-1 0,-0.35 0.25,-0.55 0.65,-0.55 1.6,0 3.33,0.16 4.99,0.16 1.69,0 3.48,-0.16 5.12,-0.16 0.25,0 0.89,0 0.89,1 0,0.5 -0.43,0.55 -0.98,0.55 -2.89,0.09 -3.3,1.18 -3.3,2.18 0,0.35 0.05,0.6 0.21,1.14 l 6.57,26.32 c 0.21,-0.3 0.21,-0.39 0.46,-0.89 l 12.4,-29.35 c 0.35,-0.86 0.49,-0.95 0.94,-0.95 0.55,0 0.55,0.16 0.8,1.05 z"
           inkscape:connector-curvature="0"
           style="fill:#000000;stroke-width:0" /></g>    </g>
    <g
       transform="translate(-97.25302,-54.137863)"
       id="g6679">
      <g
         style="font-style:normal;font-variant:normal;font-weight:normal;font-stretch:normal;letter-spacing:normal;word-spacing:normal;text-anchor:start;fill:none;stroke:#000000;stroke-linecap:butt;stroke-linejoin:miter;stroke-miterlimit:10.43299961;stroke-opacity:1;stroke-dasharray:none;stroke-dashoffset:0"
         id="g6681"
         transform="matrix(1.0629921,0,0,-1.0629921,-186.02362,789.27165)"
         xml:space="preserve"
         stroke-miterlimit="10.433"
         font-style="normal"
         font-variant="normal"
         font-weight="normal"
         font-stretch="normal"
         font-size-adjust="none"
         letter-spacing="normal"
         word-spacing="normal"><path
           style="fill:#000000;stroke-width:0"
           inkscape:connector-curvature="0"
           d="m 489.59,448.44 -0.07,-0.06 -0.07,-0.07 -0.08,-0.07 -0.08,-0.07 -0.08,-0.08 -0.09,-0.08 -0.09,-0.09 -0.1,-0.08 -0.09,-0.09 -0.1,-0.09 -0.19,-0.19 -0.2,-0.2 -0.19,-0.2 -0.09,-0.11 -0.09,-0.1 -0.09,-0.1 -0.08,-0.1 -0.08,-0.11 -0.08,-0.1 -0.07,-0.1 -0.06,-0.1 -0.06,-0.1 -0.06,-0.1 -0.04,-0.1 -0.04,-0.09 -0.03,-0.09 -0.03,-0.09 -0.01,-0.09 0,-0.09 c 0,-0.5 0.5,-1 1,-1 0.45,0 0.7,0.36 0.95,0.66 0.59,0.75 1.73,2.14 3.94,3.23 0.34,0.21 0.84,0.46 0.84,1.05 0,0.5 -0.34,0.75 -0.7,1 -1.1,0.75 -1.64,1.64 -2.05,2.83 -0.09,0.45 -0.3,1.11 -0.98,1.11 -0.71,0 -1,-0.66 -1,-1.05 0,-0.25 0.39,-1.84 1.18,-2.89 h -16.78 c -0.84,0 -1.75,0 -1.75,-1 0,-1 0.91,-1 1.75,-1 z"
           id="path6683" /><path
           style="fill:#000000;stroke-width:0"
           inkscape:connector-curvature="0"
           d="m 470.61,421.95 0.21,1.28 3.39,13.56 c 0.43,1.74 0.54,1.89 2.68,1.89 h 4.79 c 4.14,0 6.78,-1.34 6.78,-4.78 0,-1.95 -1,-6.23 -2.94,-8.03 -2.5,-2.23 -5.48,-2.64 -7.69,-2.64 h -7.01 l -0.21,-1.28 h 8.47 c 7.08,0 14,5.17 14,10.75 0,3.84 -3.28,7.53 -9.81,7.53 h -16.14 c -0.95,0 -1.5,0 -1.5,-0.95 0,-0.6 0.45,-0.6 1.45,-0.6 0.64,0 1.55,-0.04 2.14,-0.09 0.8,-0.11 1.1,-0.25 1.1,-0.8 0,-0.2 -0.05,-0.36 -0.21,-0.95 l -6.67,-26.75 c -0.5,-1.95 -0.59,-2.34 -4.53,-2.34 -0.84,0 -1.39,0 -1.39,-0.96 0,-0.59 0.59,-0.59 0.73,-0.59 1.41,0 4.94,0.16 6.33,0.16 1.05,0 2.14,-0.07 3.19,-0.07 1.11,0 2.2,-0.09 3.25,-0.09 0.34,0 0.98,0 0.98,1 0,0.55 -0.43,0.55 -1.39,0.55 -1.84,0 -3.23,0 -3.23,0.89 0,0.29 0.09,0.54 0.14,0.84 z"
           id="path6685" /></g>    </g>
    <g
       id="g6779"
       transform="translate(154.23981,-223.57961)">
      <g
         word-spacing="normal"
         letter-spacing="normal"
         font-size-adjust="none"
         font-stretch="normal"
         font-weight="normal"
         font-variant="normal"
         font-style="normal"
         stroke-miterlimit="10.433"
         xml:space="preserve"
         transform="matrix(1.0629921,0,0,-1.0629921,-186.02362,789.27165)"
         id="g6781"
         style="font-style:normal;font-variant:normal;font-weight:normal;font-stretch:normal;letter-spacing:normal;word-spacing:normal;text-anchor:start;fill:none;stroke:#000000;stroke-linecap:butt;stroke-linejoin:miter;stroke-miterlimit:10.43299961;stroke-opacity:1;stroke-dasharray:none;stroke-dashoffset:0"><path
           id="path6783"
           d="m 489.71,448.44 -0.07,-0.06 -0.07,-0.07 -0.08,-0.07 -0.08,-0.07 -0.08,-0.08 -0.09,-0.08 -0.09,-0.09 -0.1,-0.08 -0.09,-0.09 -0.1,-0.09 -0.19,-0.19 -0.2,-0.2 -0.19,-0.2 -0.09,-0.11 -0.09,-0.1 -0.09,-0.1 -0.08,-0.1 -0.08,-0.11 -0.08,-0.1 -0.07,-0.1 -0.06,-0.1 -0.06,-0.1 -0.06,-0.1 -0.04,-0.1 -0.04,-0.09 -0.03,-0.09 -0.02,-0.09 -0.02,-0.09 0,-0.09 c 0,-0.5 0.5,-1 1,-1 0.45,0 0.7,0.36 0.95,0.66 0.59,0.75 1.73,2.14 3.94,3.23 0.34,0.21 0.84,0.46 0.84,1.05 0,0.5 -0.34,0.75 -0.7,1 -1.1,0.75 -1.64,1.64 -2.05,2.83 -0.09,0.45 -0.3,1.11 -0.98,1.11 -0.71,0 -1,-0.66 -1,-1.05 0,-0.25 0.39,-1.84 1.18,-2.89 h -16.78 c -0.84,0 -1.75,0 -1.75,-1 0,-1 0.91,-1 1.75,-1 z"
           inkscape:connector-curvature="0"
           style="fill:#000000;stroke-width:0" /><path
           id="path6785"
           d="m 470.61,422.39 h 4.83 c 3.75,0 4.14,-0.8 4.14,-2.24 0,-0.36 0,-0.95 -0.34,-2.44 -0.11,-0.25 -0.16,-0.45 -0.16,-0.56 0,-0.39 0.3,-0.59 0.6,-0.59 0.5,0 0.5,0.15 0.75,1.05 l 2.75,10.81 c 0.14,0.54 0.14,0.65 0.14,0.79 0,0.1 -0.1,0.55 -0.6,0.55 -0.5,0 -0.54,-0.25 -0.75,-1.05 -1.04,-3.87 -2.18,-4.78 -6.42,-4.78 h -4.53 l 3.19,12.66 c 0.43,1.75 0.5,1.94 2.68,1.94 h 6.58 c 6.13,0 7.27,-1.64 7.27,-5.47 0,-1.16 0,-1.35 -0.14,-2.7 -0.11,-0.65 -0.11,-0.74 -0.11,-0.9 0,-0.25 0.15,-0.59 0.61,-0.59 0.54,0 0.59,0.3 0.69,1.25 l 1,8.61 c 0.15,1.34 -0.1,1.34 -1.35,1.34 h -24.4 c -1,0 -1.5,0 -1.5,-1 0,-0.54 0.45,-0.54 1.39,-0.54 1.84,0 3.23,0 3.23,-0.89 0,-0.21 0,-0.3 -0.25,-1.21 l -6.56,-26.34 c -0.5,-1.95 -0.61,-2.34 -4.55,-2.34 -0.84,0 -1.39,0 -1.39,-0.96 0,-0.59 0.59,-0.59 0.75,-0.59 1.44,0 5.13,0.16 6.58,0.16 1.64,0 5.78,-0.16 7.42,-0.16 0.45,0 1.05,0 1.05,0.95 0,0.39 -0.3,0.49 -0.3,0.55 -0.16,0.05 -0.25,0.05 -1.39,0.05 -1.11,0 -1.36,0 -2.59,0.09 -1.46,0.16 -1.6,0.36 -1.6,1 0,0.09 0,0.41 0.19,1.14 z"
           inkscape:connector-curvature="0"
           style="fill:#000000;stroke-width:0" /></g>    </g>
  </g>
  <g
     inkscape:groupmode="layer"
     id="layer5"
     inkscape:label="forward"
     style="display:none"
     transform="translate(-74.464283,-5.7489096)">
    <path
       style="fill:none;stroke:#000000;stroke-width:1px;stroke-linecap:butt;stroke-linejoin:miter;stroke-opacity:1;marker-start:url(#DotM);marker-end:url(#Arrow1Mend);display:inline"
       d="m 255.06352,161.40763 237.21428,0"
       id="path5228"
       inkscape:connector-curvature="0"
       sodipodi:nodetypes="cc" />
  </g>
  <g
     inkscape:groupmode="layer"
     id="layer4"
     inkscape:label="spring"
     style="display:inline"
     transform="translate(-74.464283,-5.7489096)">
    <g
       transform="translate(-0.32521,-25.999997)"
       id="g6846">
      <path
         style="fill:none;stroke:#000000;stroke-width:1px;stroke-linecap:butt;stroke-linejoin:miter;stroke-opacity:1;marker-start:url(#DotM);marker-end:url(#Arrow1Mend);display:inline"
         d="m 255.06352,187.40763 103.65178,0 2.99256,-8 4.99256,16 4.99256,-16 4.99256,16 4.99256,-16 4.99256,16 4.99256,-16 4.99256,16 4.99256,-16 4.99256,16 4.99256,-16 2.99256,8 77.65178,0"
         id="path6840"
         inkscape:connector-curvature="0"
         sodipodi:nodetypes="ccccccccccccccc" />
      <path
         transform="translate(70.158251,36.460194)"
         d="m 364.87814,150.80103 a 2.2097087,2.2097087 0 1 1 -4.41942,0 2.2097087,2.2097087 0 1 1 4.41942,0 z"
         sodipodi:ry="2.2097087"
         sodipodi:rx="2.2097087"
         sodipodi:cy="150.80103"
         sodipodi:cx="362.66843"
         id="path6843"
         style="fill:#000000;fill-opacity:1;fill-rule:nonzero;stroke:none"
         sodipodi:type="arc" />
    </g>
    <g
       style="display:inline"
       transform="translate(66.460731,-224.55278)"
       id="g6501">
      <g
         style="font-style:normal;font-variant:normal;font-weight:normal;font-stretch:normal;letter-spacing:normal;word-spacing:normal;text-anchor:start;fill:none;stroke:#000000;stroke-linecap:butt;stroke-linejoin:miter;stroke-miterlimit:10.43299961;stroke-opacity:1;stroke-dasharray:none;stroke-dashoffset:0"
         id="g6503"
         transform="matrix(1.0629921,0,0,-1.0629921,-186.02362,789.27165)"
         xml:space="preserve"
         stroke-miterlimit="10.433"
         font-style="normal"
         font-variant="normal"
         font-weight="normal"
         font-stretch="normal"
         font-size-adjust="none"
         letter-spacing="normal"
         word-spacing="normal"><path
           style="fill:#000000;stroke-width:0"
           inkscape:connector-curvature="0"
           d="m 492.71,448.44 -0.07,-0.06 -0.07,-0.07 -0.08,-0.07 -0.08,-0.07 -0.08,-0.08 -0.09,-0.08 -0.09,-0.09 -0.1,-0.08 -0.09,-0.09 -0.1,-0.09 -0.19,-0.19 -0.2,-0.2 -0.19,-0.2 -0.09,-0.11 -0.09,-0.1 -0.09,-0.1 -0.08,-0.1 -0.08,-0.11 -0.08,-0.1 -0.07,-0.1 -0.06,-0.1 -0.06,-0.1 -0.06,-0.1 -0.04,-0.1 -0.04,-0.09 -0.03,-0.09 -0.02,-0.09 -0.02,-0.09 0,-0.09 c 0,-0.5 0.5,-1 1,-1 0.45,0 0.7,0.36 0.95,0.66 0.59,0.75 1.73,2.14 3.94,3.23 0.34,0.21 0.84,0.46 0.84,1.05 0,0.5 -0.34,0.75 -0.7,1 -1.1,0.75 -1.64,1.64 -2.05,2.83 -0.09,0.45 -0.3,1.11 -0.98,1.11 -0.71,0 -1,-0.66 -1,-1.05 0,-0.25 0.39,-1.84 1.18,-2.89 h -16.78 c -0.84,0 -1.75,0 -1.75,-1 0,-1 0.91,-1 1.75,-1 z"
           id="path6505" /><path
           style="fill:#000000;stroke-width:0"
           inkscape:connector-curvature="0"
           d="m 470.61,422.39 h 4.83 c 3.75,0 4.14,-0.8 4.14,-2.24 0,-0.36 0,-0.95 -0.34,-2.44 -0.11,-0.25 -0.16,-0.45 -0.16,-0.56 0,-0.39 0.3,-0.59 0.6,-0.59 0.5,0 0.5,0.15 0.75,1.05 l 2.75,10.81 c 0.14,0.54 0.14,0.65 0.14,0.79 0,0.1 -0.1,0.55 -0.6,0.55 -0.5,0 -0.54,-0.25 -0.75,-1.05 -1.04,-3.87 -2.18,-4.78 -6.42,-4.78 h -4.53 l 3.19,12.66 c 0.43,1.75 0.5,1.94 2.68,1.94 h 6.58 c 6.13,0 7.27,-1.64 7.27,-5.47 0,-1.16 0,-1.35 -0.14,-2.7 -0.11,-0.65 -0.11,-0.74 -0.11,-0.9 0,-0.25 0.15,-0.59 0.61,-0.59 0.54,0 0.59,0.3 0.69,1.25 l 1,8.61 c 0.15,1.34 -0.1,1.34 -1.35,1.34 h -24.4 c -1,0 -1.5,0 -1.5,-1 0,-0.54 0.45,-0.54 1.39,-0.54 1.84,0 3.23,0 3.23,-0.89 0,-0.21 0,-0.3 -0.25,-1.21 l -6.56,-26.34 c -0.5,-1.95 -0.61,-2.34 -4.55,-2.34 -0.84,0 -1.39,0 -1.39,-0.96 0,-0.59 0.59,-0.59 0.75,-0.59 1.44,0 5.13,0.16 6.58,0.16 1.64,0 5.78,-0.16 7.42,-0.16 0.45,0 1.05,0 1.05,0.95 0,0.39 -0.3,0.49 -0.3,0.55 -0.16,0.05 -0.25,0.05 -1.39,0.05 -1.11,0 -1.36,0 -2.59,0.09 -1.46,0.16 -1.6,0.36 -1.6,1 0,0.09 0,0.41 0.19,1.14 z"
           id="path6507" /><path
           style="fill:#000000;stroke-width:0"
           inkscape:connector-curvature="0"
           d="m 495.37,406.7 0.1,0 0.1,0 0.12,0 0.12,0 0.14,0.01 0.14,0 0.14,0.01 0.16,0 0.16,0.01 0.17,0.01 0.17,0.01 0.18,0.01 0.19,0.01 0.18,0.02 0.39,0.03 0.4,0.04 0.4,0.05 0.41,0.06 0.4,0.07 0.4,0.08 0.2,0.05 0.2,0.04 0.19,0.05 0.19,0.06 0.18,0.05 0.18,0.06 c 2.58,0.91 3.06,2.58 3.06,3.63 0,1.92 -1.92,3.06 -4.33,3.06 v -0.97 c 1.54,0 2.83,-0.76 2.83,-2.09 0,-3.38 -5.89,-3.38 -7.39,-3.38 h -1.7 c 1.42,5.05 5.3,5.47 6.26,5.47 v 0.97 c -4.17,0 -9.82,-3.2 -9.82,-9.16 0,-3.51 2.2,-6.54 6.28,-6.54 5.89,0 8.64,3.44 8.64,3.94 0,0.2 -0.31,0.59 -0.6,0.59 -0.2,0 -0.28,-0.08 -0.56,-0.36 -2.72,-3.2 -6.79,-3.2 -7.42,-3.2 -2.09,0 -3.48,1.39 -3.48,4.22 0,0.48 0,1.18 0.42,3.09 z"
           id="path6509" /></g>    </g>
  </g>
</svg>
