<?xml version="1.0" encoding="UTF-8" standalone="no"?>
<svg xmlns:dc="http://purl.org/dc/elements/1.1/" xmlns:cc="http://creativecommons.org/ns#" xmlns:rdf="http://www.w3.org/1999/02/22-rdf-syntax-ns#" xmlns:svg="http://www.w3.org/2000/svg" xmlns="http://www.w3.org/2000/svg" version="1.1" width="228" height="238" id="svg2" style="fill:#3f3f3d">
  <metadata id="metadata4">
    <rdf:RDF>
      <cc:Work rdf:about="">
        <dc:format>image/svg+xml</dc:format>
        <dc:type rdf:resource="http://purl.org/dc/dcmitype/StillImage"/>
        <dc:title/>
      </cc:Work>
    </rdf:RDF>
  </metadata>
  <defs id="defs6"/>
  <path d="M 66.943,63.413 C 50.233,82.571 53.402,98.391 53.402,98.391 l 0,0 c 0,0 4.609,-10.887 15.703,-22.351 l 0,0 c 5.253,-5.43 9.181,-7.247 11.862,-7.254 l 0,0 c 2.98,-0.009 4.417,2.22 4.417,4.207 l 0,0 0,38.894 c 0,3.837 -2.473,4.676 -4.752,4.633 l 0,0 c -1.946,-0.036 -3.748,-0.712 -3.748,-0.712 l 0,0 c 11.381,16.544 38.609,18.867 38.609,18.867 l 0,0 11.957,-12.773 0.281,0.241 10.955,9.337 c 20.025,-11.9 29.679,-33.961 29.679,-33.961 l 0,0 c -8.935,9.46 -14.631,11.665 -18.011,11.648 l 0,0 c -2.999,-0.015 -4.176,-1.778 -4.176,-1.778 l 0,0 c -0.161,-0.819 -0.441,-12.652 -0.54,-24.493 l 0,0 c -0.102,-12.267 -0.013,-24.542 0.602,-24.579 l 0,0 c 3.458,-6.49 14.489,-19.576 14.489,-19.576 l 0,0 c -20.602,4.061 -31.837,17.561 -31.837,17.561 l 0,0 c -3.316,-2.613 -10.085,-2.179 -10.085,-2.179 l 0,0 c 3.168,1.744 6.338,6.824 6.338,11.032 l 0,0 0,41.364 c 0,0 -6.915,6.094 -12.245,6.094 l 0,0 c -3.151,0 -5.094,-1.725 -6.156,-3.135 l 0,0 c -0.735,-0.977 -1.049,-1.8 -1.049,-1.8 l 0,0 0,-51.087 c -0.653,0.473 -1.582,0.868 -2.537,0.862 l 0,0 c -1.132,-0.005 -2.304,-0.572 -3.1,-2.242 l 0,0 C 99.457,53.954 99.07,52.072 99.07,49.334 l 0,0 c 0,-9.432 10.661,-15.674 10.661,-15.674 l 0,0 C 96.188,37.289 83.655,44.256 66.943,63.413" id="path8"/>
  <path d="m 30.746,84.31 c 0,46.307 37.222,83.845 83.139,83.845 l 0,0 c 45.916,0 83.139,-37.538 83.139,-83.845 l 0,0 c 0,-46.306 -37.223,-83.845 -83.139,-83.845 l 0,0 c -45.917,0 -83.139,37.539 -83.139,83.845 m 26.938,56.68 C 42.672,125.85 34.404,105.72 34.404,84.31 l 0,0 c 0,-21.409 8.268,-41.538 23.28,-56.677 l 0,0 C 72.696,12.493 92.655,4.156 113.885,4.156 l 0,0 c 21.229,0 41.189,8.337 56.201,23.477 l 0,0 c 15.012,15.139 23.279,35.268 23.279,56.677 l 0,0 c 0,21.41 -8.267,41.54 -23.279,56.68 l 0,0 c -15.012,15.138 -34.972,23.475 -56.201,23.475 l 0,0 c -21.23,0 -41.189,-8.337 -56.201,-23.475" id="path10"/>
  <path d="m 54.1314,221.0346 0,16.316 17.79,0 0,-3.713 -13.023,0 0,-2.812 12.07,0 0,-3.407 -12.07,0 0,-2.777 12.744,0 0,-3.607 -17.511,0 z" id="path12"/>
  <path d="m 91.3617,221.0346 0,12.217 -0.094,0 -9.36,-12.217 -7.313,0 0,16.316 4.72,0 0,-12.205 0.093,0 9.477,12.205 7.197,0 0,-16.316 -4.72,0 z" id="path14"/>
  <path d="m 109.974,220.976 c -1.496,0 -2.792,0.034 -3.889,0.104 l 0,0 c -1.097,0.07 -2.029,0.207 -2.796,0.413 l 0,0 c -0.767,0.205 -1.39,0.492 -1.87,0.86 l 0,0 c -0.479,0.368 -0.853,0.851 -1.121,1.447 l 0,0 c -0.268,0.596 -0.451,1.322 -0.547,2.178 l 0,0 c -0.096,0.857 -0.144,1.87 -0.144,3.04 l 0,0 0,0.476 c 0,1.163 0.046,2.168 0.139,3.017 l 0,0 c 0.092,0.847 0.27,1.57 0.535,2.167 l 0,0 c 0.264,0.596 0.636,1.081 1.116,1.452 l 0,0 c 0.478,0.372 1.102,0.663 1.869,0.872 l 0,0 c 0.767,0.209 1.699,0.351 2.796,0.424 l 0,0 c 1.096,0.073 2.401,0.11 3.912,0.11 l 0,0 0.724,0 c 1.281,0 2.403,-0.034 3.365,-0.104 l 0,0 c 0.962,-0.07 1.789,-0.188 2.48,-0.354 l 0,0 c 0.69,-0.167 1.26,-0.391 1.708,-0.675 l 0,0 c 0.449,-0.283 0.806,-0.638 1.07,-1.069 l 0,0 c 0.265,-0.43 0.448,-0.942 0.552,-1.534 l 0,0 c 0.104,-0.592 0.156,-1.281 0.156,-2.063 l 0,0 0,-3.626 -10.815,0 0,3.149 6.247,0 0,0.454 c 0,0.287 -0.019,0.536 -0.057,0.75 l 0,0 c -0.038,0.213 -0.118,0.399 -0.235,0.558 l 0,0 c -0.119,0.158 -0.288,0.29 -0.506,0.395 l 0,0 c -0.219,0.104 -0.51,0.185 -0.874,0.244 l 0,0 c -0.364,0.058 -0.812,0.1 -1.345,0.128 l 0,0 c -0.532,0.026 -1.166,0.041 -1.902,0.041 l 0,0 -0.402,0 c -0.904,0 -1.676,-0.016 -2.316,-0.047 l 0,0 c -0.639,-0.031 -1.172,-0.099 -1.598,-0.203 l 0,0 c -0.425,-0.106 -0.762,-0.255 -1.011,-0.448 l 0,0 c -0.249,-0.194 -0.434,-0.455 -0.557,-0.784 l 0,0 c -0.123,-0.33 -0.201,-0.735 -0.236,-1.215 l 0,0 c -0.035,-0.48 -0.052,-1.058 -0.052,-1.732 l 0,0 0,-0.291 c 0,-0.688 0.017,-1.28 0.052,-1.772 l 0,0 c 0.035,-0.491 0.113,-0.904 0.236,-1.237 l 0,0 c 0.123,-0.333 0.308,-0.597 0.557,-0.791 l 0,0 c 0.249,-0.193 0.586,-0.342 1.011,-0.447 l 0,0 c 0.426,-0.104 0.959,-0.173 1.598,-0.203 l 0,0 c 0.64,-0.032 1.412,-0.047 2.316,-0.047 l 0,0 0.402,0 c 0.996,0 1.799,0.031 2.408,0.093 l 0,0 c 0.608,0.062 1.082,0.168 1.419,0.32 l 0,0 c 0.337,0.151 0.564,0.353 0.678,0.604 l 0,0 c 0.115,0.252 0.173,0.563 0.173,0.935 l 0,0 0,0.198 4.624,0 0,-0.627 c 0,-0.713 -0.05,-1.337 -0.149,-1.871 l 0,0 c -0.099,-0.535 -0.278,-0.994 -0.535,-1.377 l 0,0 c -0.256,-0.385 -0.606,-0.7 -1.047,-0.948 l 0,0 c -0.441,-0.248 -1,-0.444 -1.679,-0.587 l 0,0 c -0.68,-0.143 -1.491,-0.242 -2.434,-0.296 l 0,0 c -0.943,-0.054 -2.044,-0.081 -3.302,-0.081 l 0,0 -0.724,0 z" id="path16"/>
  <path d="m 148.2894,221.1615 0,12.121 -0.092,0 -9.261,-12.121 -7.236,0 0,16.189 4.67,0 0,-12.109 0.092,0 9.377,12.109 7.122,0 0,-16.189 -4.672,0 z" id="path18"/>
  <path d="m 156.7539,221.1615 0,16.189 17.602,0 0,-3.684 -12.885,0 0,-2.79 11.942,0 0,-3.382 -11.942,0 0,-2.754 12.61,0 0,-3.579 -17.327,0 z" id="path20"/>
  <path d="m 26.796,183.472 0,15.69 c 0,0.956 -0.034,1.786 -0.102,2.489 l 0,0 c -0.068,0.703 -0.206,1.297 -0.416,1.782 l 0,0 c -0.21,0.485 -0.51,0.88 -0.902,1.188 l 0,0 c -0.392,0.307 -0.912,0.543 -1.561,0.707 l 0,0 c -0.649,0.164 -1.447,0.276 -2.393,0.338 l 0,0 c -0.946,0.061 -2.076,0.092 -3.387,0.092 l 0,0 -0.709,0 c -1.311,0 -2.441,-0.027 -3.387,-0.082 l 0,0 c -0.946,-0.054 -1.743,-0.167 -2.392,-0.338 l 0,0 c -0.649,-0.17 -1.17,-0.406 -1.561,-0.707 l 0,0 c -0.393,-0.299 -0.694,-0.696 -0.903,-1.188 l 0,0 c -0.21,-0.491 -0.349,-1.085 -0.416,-1.782 l 0,0 C 8.6,200.965 8.566,200.132 8.566,199.162 l 0,0 0,-15.69 -8.395,0 0,18.414 c 0,1.421 0.102,2.663 0.304,3.729 l 0,0 c 0.203,1.065 0.551,1.984 1.044,2.755 l 0,0 c 0.493,0.771 1.157,1.413 1.987,1.925 l 0,0 c 0.832,0.512 1.88,0.919 3.143,1.218 l 0,0 c 1.265,0.301 2.769,0.513 4.513,0.636 l 0,0 c 1.743,0.123 3.771,0.184 6.083,0.184 l 0,0 0.872,0 c 2.338,0 4.387,-0.061 6.144,-0.184 l 0,0 c 1.757,-0.123 3.268,-0.335 4.532,-0.636 l 0,0 c 1.264,-0.299 2.308,-0.706 3.133,-1.218 l 0,0 c 0.824,-0.512 1.48,-1.154 1.967,-1.925 l 0,0 c 0.486,-0.771 0.824,-1.694 1.013,-2.766 l 0,0 c 0.19,-1.071 0.284,-2.311 0.284,-3.718 l 0,0 0,-18.414 -8.394,0 z" id="path22"/>
  <path d="m 70.1496,183.4713 0,21.365 -0.162,0 -16.324,-21.365 -12.755,0 0,28.535 8.233,0 0,-21.345 0.162,0 16.527,21.345 12.551,0 0,-28.535 -8.232,0 z" id="path24"/>
  <path d="m 84.182,183.472 0,28.534 8.314,0 0,-7.927 8.395,0 c 1.298,0 2.416,0.023 3.355,0.071 l 0,0 c 0.94,0.048 1.731,0.14 2.372,0.277 l 0,0 c 0.643,0.136 1.16,0.331 1.552,0.584 l 0,0 c 0.392,0.252 0.697,0.587 0.913,1.004 l 0,0 c 0.216,0.415 0.358,0.925 0.425,1.525 l 0,0 c 0.068,0.601 0.102,1.318 0.102,2.151 l 0,0 0,2.315 8.294,0 0,-4.363 c 0,-1.257 -0.068,-2.287 -0.204,-3.094 l 0,0 c -0.135,-0.805 -0.385,-1.457 -0.749,-1.956 l 0,0 c -0.366,-0.498 -0.869,-0.873 -1.511,-1.126 l 0,0 c -0.642,-0.253 -1.464,-0.461 -2.464,-0.626 l 0,0 0,-0.163 c 0.906,-0.205 1.67,-0.504 2.292,-0.901 l 0,0 c 0.621,-0.396 1.128,-0.898 1.52,-1.506 l 0,0 c 0.392,-0.608 0.676,-1.331 0.852,-2.171 l 0,0 c 0.175,-0.84 0.264,-1.82 0.264,-2.939 l 0,0 0,-1.004 c 0,-1.639 -0.166,-3.015 -0.497,-4.128 l 0,0 c -0.332,-1.113 -0.93,-2.007 -1.795,-2.683 l 0,0 c -0.866,-0.676 -2.048,-1.157 -3.549,-1.444 l 0,0 c -1.5,-0.287 -3.413,-0.43 -5.738,-0.43 l 0,0 -22.143,0 z m 8.314,6.308 10.463,0 c 1.433,0 2.579,0.045 3.437,0.133 l 0,0 c 0.858,0.09 1.514,0.267 1.967,0.534 l 0,0 c 0.452,0.266 0.747,0.648 0.882,1.147 l 0,0 c 0.135,0.498 0.203,1.15 0.203,1.955 l 0,0 0,0.492 c 0,0.82 -0.068,1.479 -0.203,1.977 l 0,0 c -0.135,0.499 -0.426,0.888 -0.872,1.167 l 0,0 c -0.446,0.28 -1.098,0.465 -1.957,0.554 l 0,0 c -0.859,0.088 -2.011,0.133 -3.457,0.133 l 0,0 -10.463,0 0,-8.092 z" id="path26"/>
  <path d="m 123.3783,183.4713 0,28.535 31.025,0 0,-6.494 -22.711,0 0,-4.916 21.049,0 0,-5.96 -21.049,0 0,-4.855 22.224,0 0,-6.31 -30.538,0 z" id="path28"/>
  <path d="m 171.558,183.4722 -15.33,28.534 8.983,0 2.576,-5.121 17.804,0 2.615,5.121 9.064,0 -15.411,-28.534 -10.301,0 z m 4.989,6.001 0.202,0 5.821,11.451 -11.802,0 5.779,-11.451 z" id="path30"/>
  <path d="m 200.3328,183.4713 0,28.535 27.496,0 0,-6.638 -19.102,0 0,-21.897 -8.394,0 z" id="path32"/>
  <path d="m 123.337,237.35 4.786,0 0,-16.188 -4.786,0 0,16.188 z" id="path34"/>
</svg>