<?xml version="1.0" encoding="UTF-8" standalone="no"?>
<svg
   xmlns:dc="http://purl.org/dc/elements/1.1/"
   xmlns:cc="http://creativecommons.org/ns#"
   xmlns:rdf="http://www.w3.org/1999/02/22-rdf-syntax-ns#"
   xmlns:svg="http://www.w3.org/2000/svg"
   xmlns="http://www.w3.org/2000/svg"
   xmlns:xlink="http://www.w3.org/1999/xlink"
   version="1.1"
   width="262"
   height="130"
   id="flac Logo">
  <metadata
     id="metadata174">
    <rdf:RDF>
      <cc:Work
         rdf:about="">
        <dc:format>image/svg+xml</dc:format>
        <dc:type
           rdf:resource="http://purl.org/dc/dcmitype/StillImage" />
        <dc:title></dc:title>
      </cc:Work>
    </rdf:RDF>
  </metadata>
  <defs
     id="defs172">
    <clipPath
       id="clipPath174">
      <path
         d="m 2,1 13,0 0,32 13,0 0,-16 13,0 0,48 13,0 0,64 -52,0 z"
         id="path176" />
    </clipPath>
  </defs>
  <rect
     width="262"
     height="130"
     id="rect4" />
  <g
     transform="matrix(0.70835613,0,0,0.70835613,39.502082,34.424583)"
     id="free lossless audio codec"
     style="fill:#fdfffc">
    <path
       d="m 39.718509,125.17462 0,-9.359 -1.614,0 0,-1.421 1.614,0 0,-1.147 c 0,-0.724 0.064,-1.262 0.193,-1.614 0.176,-0.473 0.485,-0.857 0.928,-1.152 0.444,-0.294 1.064,-0.441 1.863,-0.441 0.514,0 1.083,0.061 1.705,0.183 l -0.274,1.593 c -0.379,-0.067 -0.737,-0.101 -1.076,-0.101 -0.555,0 -0.947,0.118 -1.177,0.355 -0.23,0.237 -0.345,0.68 -0.345,1.33 l 0,0.994 2.101,0 0,1.421 -2.101,0 0,9.359 -1.817,0 z"
       id="path10" />
    <path
       d="m 46.33753,125.17462 0,-10.78 1.645,0 0,1.635 c 0.419,-0.765 0.807,-1.269 1.162,-1.513 0.355,-0.243 0.746,-0.365 1.172,-0.365 0.616,0 1.242,0.196 1.878,0.588 l -0.629,1.696 c -0.447,-0.264 -0.893,-0.396 -1.34,-0.396 -0.399,0 -0.758,0.12 -1.076,0.36 -0.318,0.24 -0.545,0.573 -0.68,1 -0.203,0.649 -0.304,1.36 -0.304,2.131 l 0,5.644 -1.828,0 z"
       id="path12" />
    <path
       d="m 62.268403,121.70262 1.888,0.234 c -0.297,1.103 -0.849,1.959 -1.654,2.568 -0.805,0.609 -1.834,0.913 -3.086,0.913 -1.576,0 -2.827,-0.485 -3.75,-1.456 -0.924,-0.971 -1.386,-2.333 -1.386,-4.086 0,-1.813 0.467,-3.221 1.401,-4.222 0.934,-1.002 2.145,-1.502 3.634,-1.502 1.441,0 2.618,0.49 3.532,1.472 0.913,0.981 1.37,2.361 1.37,4.141 0,0.108 -0.003,0.27 -0.01,0.487 l -8.039,0 c 0.068,1.184 0.403,2.091 1.005,2.72 0.602,0.63 1.353,0.944 2.253,0.944 0.67,0 1.242,-0.176 1.716,-0.528 0.473,-0.351 0.849,-0.913 1.126,-1.685 z m -5.998,-2.953 6.019,0 c -0.082,-0.907 -0.312,-1.587 -0.691,-2.04 -0.581,-0.704 -1.336,-1.056 -2.263,-1.056 -0.839,0 -1.545,0.281 -2.116,0.842 -0.572,0.562 -0.888,1.313 -0.949,2.254 z"
       id="path14" />
    <use
       transform="translate(12.711438,0)"
       id="use16"
       x="0"
       y="0"
       width="265"
       height="130"
       xlink:href="#path14" />
    <rect
       width="1.827"
       height="14.88"
       x="88.229515"
       y="110.29462"
       id="rect20" />
    <path
       d="m 93.724991,119.7721 c 0,-1.996 0.554,-3.475 1.664,-4.436 0.927,-0.798 2.057,-1.197 3.39,-1.197 1.482,0 2.694,0.485 3.634,1.456 0.941,0.971 1.411,2.313 1.411,4.025 0,1.387 -0.208,2.478 -0.624,3.273 -0.416,0.795 -1.022,1.413 -1.817,1.853 -0.795,0.44 -1.663,0.659 -2.604,0.659 -1.509,0 -2.728,-0.483 -3.659,-1.451 -0.93,-0.968 -1.395,-2.362 -1.395,-4.182 z m 1.877,0 c 0,1.38 0.301,2.414 0.904,3.101 0.602,0.687 1.36,1.03 2.273,1.03 0.907,0 1.662,-0.345 2.264,-1.035 0.602,-0.69 0.903,-1.743 0.903,-3.157 0,-1.333 -0.303,-2.343 -0.908,-3.03 -0.606,-0.686 -1.359,-1.03 -2.259,-1.03 -0.913,0 -1.671,0.342 -2.273,1.025 -0.603,0.684 -0.904,1.716 -0.904,3.096 z"
       id="path22" />
    <path
       d="m 106.41705,121.93201 1.807,-0.284 c 0.101,0.724 0.384,1.279 0.847,1.665 0.464,0.385 1.112,0.578 1.944,0.578 0.839,0 1.462,-0.171 1.868,-0.512 0.406,-0.342 0.609,-0.743 0.609,-1.203 0,-0.413 -0.18,-0.738 -0.538,-0.975 -0.251,-0.162 -0.873,-0.368 -1.868,-0.619 -1.34,-0.338 -2.269,-0.631 -2.786,-0.878 -0.518,-0.247 -0.91,-0.588 -1.178,-1.025 -0.267,-0.436 -0.401,-0.919 -0.401,-1.446 0,-0.481 0.11,-0.926 0.33,-1.335 0.22,-0.409 0.52,-0.749 0.899,-1.02 0.284,-0.21 0.671,-0.388 1.162,-0.533 0.49,-0.146 1.016,-0.218 1.578,-0.218 0.846,0 1.589,0.122 2.228,0.365 0.64,0.244 1.112,0.574 1.416,0.99 0.305,0.416 0.514,0.972 0.629,1.669 l -1.786,0.244 c -0.081,-0.555 -0.316,-0.988 -0.706,-1.299 -0.389,-0.311 -0.938,-0.467 -1.649,-0.467 -0.839,0 -1.438,0.139 -1.797,0.416 -0.358,0.278 -0.537,0.602 -0.537,0.975 0,0.236 0.074,0.45 0.223,0.639 0.149,0.196 0.382,0.359 0.7,0.487 0.183,0.068 0.721,0.224 1.614,0.467 1.293,0.345 2.194,0.628 2.705,0.848 0.511,0.22 0.912,0.539 1.203,0.959 0.291,0.419 0.436,0.94 0.436,1.563 0,0.609 -0.177,1.182 -0.533,1.72 -0.355,0.538 -0.867,0.955 -1.537,1.249 -0.67,0.294 -1.428,0.441 -2.274,0.441 -1.401,0 -2.468,-0.291 -3.202,-0.872 -0.734,-0.582 -1.203,-1.445 -1.406,-2.589 z"
       id="path24" />
    <use
       transform="translate(11.902911,0)"
       id="use26"
       x="0"
       y="0"
       width="265"
       height="130"
       xlink:href="#path24" />
    <rect
       width="1.827"
       height="14.88"
       x="130.46033"
       y="110.29462"
       id="rect28" />
    <use
       transform="translate(81.88538,0)"
       id="use30"
       x="0"
       y="0"
       width="265"
       height="130"
       xlink:href="#path14" />
    <use
       transform="translate(42.254931,0)"
       id="use32"
       x="0"
       y="0"
       width="265"
       height="130"
       xlink:href="#path24" />
    <use
       transform="translate(54.133708,0)"
       id="use34"
       x="0"
       y="0"
       width="265"
       height="130"
       xlink:href="#path24" />
    <path
       d="m 187.58341,123.85256 c -0.676,0.575 -1.328,0.981 -1.954,1.218 -0.625,0.237 -1.297,0.355 -2.014,0.355 -1.185,0 -2.095,-0.289 -2.731,-0.867 -0.636,-0.579 -0.954,-1.318 -0.954,-2.218 0,-0.528 0.12,-1.01 0.36,-1.447 0.241,-0.436 0.555,-0.786 0.944,-1.05 0.39,-0.264 0.828,-0.464 1.315,-0.599 0.359,-0.095 0.9,-0.186 1.624,-0.274 1.475,-0.176 2.561,-0.386 3.258,-0.629 0.007,-0.251 0.01,-0.41 0.01,-0.477 0,-0.745 -0.172,-1.269 -0.517,-1.574 -0.467,-0.413 -1.161,-0.619 -2.081,-0.619 -0.86,0 -1.494,0.151 -1.903,0.452 -0.41,0.301 -0.713,0.834 -0.909,1.598 l -1.786,-0.243 c 0.162,-0.765 0.43,-1.382 0.802,-1.853 0.372,-0.47 0.91,-0.832 1.614,-1.086 0.703,-0.253 1.519,-0.38 2.446,-0.38 0.92,0 1.668,0.108 2.243,0.325 0.575,0.216 0.998,0.488 1.269,0.817 0.27,0.328 0.46,0.742 0.568,1.243 0.061,0.311 0.091,0.873 0.091,1.685 l 0,2.436 c 0,1.698 0.039,2.773 0.117,3.223 0.078,0.45 0.232,0.881 0.462,1.294 l -1.908,0 c -0.19,-0.379 -0.311,-0.822 -0.366,-1.33 z m -0.152,-4.08 c -0.663,0.27 -1.658,0.501 -2.984,0.69 -0.751,0.108 -1.282,0.23 -1.594,0.365 -0.311,0.136 -0.551,0.334 -0.72,0.594 -0.169,0.261 -0.254,0.55 -0.254,0.868 0,0.487 0.184,0.893 0.553,1.218 0.369,0.325 0.909,0.487 1.619,0.487 0.704,0 1.33,-0.154 1.878,-0.462 0.548,-0.307 0.951,-0.729 1.208,-1.263 0.196,-0.413 0.294,-1.022 0.294,-1.827 l 0,-0.67 z"
       id="path38" />
    <path
       d="m 200.4943,125.16335 0,-1.584 c -0.839,1.218 -1.979,1.827 -3.421,1.827 -0.636,0 -1.23,-0.121 -1.781,-0.365 -0.552,-0.244 -0.961,-0.55 -1.228,-0.919 -0.268,-0.368 -0.455,-0.82 -0.564,-1.355 -0.074,-0.358 -0.111,-0.927 -0.111,-1.705 l 0,-6.679 1.827,0 0,5.979 c 0,0.954 0.037,1.597 0.111,1.928 0.115,0.481 0.359,0.858 0.731,1.132 0.372,0.274 0.833,0.411 1.381,0.411 0.548,0 1.062,-0.14 1.543,-0.421 0.48,-0.281 0.82,-0.663 1.02,-1.147 0.199,-0.484 0.299,-1.186 0.299,-2.106 l 0,-5.776 1.827,0 0,10.78 -1.634,0 z"
       id="path40" />
    <path
       d="m 213.28866,125.18536 0,-1.36 c -0.684,1.069 -1.688,1.603 -3.015,1.603 -0.859,0 -1.649,-0.236 -2.37,-0.71 -0.72,-0.474 -1.279,-1.135 -1.675,-1.984 -0.395,-0.85 -0.593,-1.826 -0.593,-2.929 0,-1.076 0.179,-2.052 0.538,-2.928 0.358,-0.876 0.896,-1.548 1.614,-2.015 0.717,-0.467 1.519,-0.7 2.405,-0.7 0.65,0 1.228,0.137 1.736,0.411 0.507,0.274 0.92,0.631 1.238,1.071 l 0,-5.339 1.817,0 0,14.88 -1.695,0 z m -5.776,-5.38 c 0,1.381 0.291,2.413 0.873,3.096 0.582,0.683 1.269,1.025 2.061,1.025 0.798,0 1.477,-0.326 2.035,-0.979 0.558,-0.653 0.837,-1.65 0.837,-2.99 0,-1.475 -0.284,-2.557 -0.852,-3.248 -0.569,-0.69 -1.269,-1.035 -2.101,-1.035 -0.812,0 -1.491,0.332 -2.035,0.995 -0.545,0.663 -0.818,1.708 -0.818,3.136 z"
       id="path42" />
    <path
       d="m 219.35332,112.38435 0,-2.101 1.827,0 0,2.101 -1.827,0 z m 0,12.779 0,-10.78 1.827,0 0,10.78 -1.827,0 z"
       id="path44" />
    <use
       transform="translate(131.18516,0)"
       id="use46"
       x="0"
       y="0"
       width="265"
       height="130"
       xlink:href="#path22" />
    <path
       d="m 252.63886,121.21247 1.797,0.234 c -0.196,1.238 -0.699,2.208 -1.507,2.908 -0.809,0.7 -1.802,1.05 -2.979,1.05 -1.476,0 -2.661,-0.482 -3.558,-1.446 -0.897,-0.964 -1.345,-2.346 -1.345,-4.146 0,-1.164 0.193,-2.183 0.579,-3.056 0.385,-0.872 0.972,-1.527 1.761,-1.964 0.788,-0.436 1.646,-0.654 2.573,-0.654 1.17,0 2.128,0.296 2.872,0.888 0.745,0.592 1.222,1.433 1.431,2.522 l -1.776,0.274 c -0.169,-0.724 -0.468,-1.269 -0.898,-1.634 -0.43,-0.365 -0.949,-0.548 -1.558,-0.548 -0.92,0 -1.668,0.33 -2.243,0.99 -0.576,0.659 -0.863,1.703 -0.863,3.131 0,1.448 0.277,2.5 0.832,3.157 0.555,0.656 1.279,0.984 2.172,0.984 0.718,0 1.316,-0.22 1.797,-0.66 0.48,-0.439 0.785,-1.116 0.913,-2.03 z"
       id="path50" />
    <use
       transform="translate(163.08566,0)"
       id="use52"
       x="0"
       y="0"
       width="265"
       height="130"
       xlink:href="#path22" />
    <path
       d="m 277.03214,125.15536 0,-1.36 c -0.684,1.069 -1.689,1.603 -3.015,1.603 -0.859,0 -1.649,-0.236 -2.37,-0.71 -0.721,-0.474 -1.279,-1.135 -1.675,-1.984 -0.396,-0.85 -0.594,-1.826 -0.594,-2.929 0,-1.076 0.18,-2.052 0.538,-2.928 0.359,-0.876 0.897,-1.548 1.614,-2.015 0.718,-0.467 1.519,-0.7 2.406,-0.7 0.649,0 1.228,0.137 1.736,0.411 0.507,0.274 0.92,0.631 1.238,1.071 l 0,-5.339 1.817,0 0,14.88 -1.695,0 z m -5.776,-5.38 c 0,1.381 0.291,2.413 0.873,3.096 0.582,0.683 1.269,1.025 2.061,1.025 0.798,0 1.476,-0.326 2.035,-0.979 0.558,-0.653 0.837,-1.65 0.837,-2.99 0,-1.475 -0.284,-2.557 -0.853,-3.248 -0.568,-0.69 -1.268,-1.035 -2.101,-1.035 -0.812,0 -1.49,0.332 -2.035,0.995 -0.544,0.663 -0.817,1.708 -0.817,3.136 z"
       id="path54" />
    <use
       transform="translate(227.89408,0)"
       id="use56"
       x="0"
       y="0"
       width="265"
       height="130"
       xlink:href="#path14" />
    <use
       transform="translate(50.014443,0)"
       id="use58"
       x="0"
       y="0"
       width="265"
       height="130"
       xlink:href="#path50" />
  </g>
  <g
     id="flac"
     style="fill:#fdfffc">
    <path
       d="M 66.301508,50.396255 55.918285,50.37575 59.649535,33 l 6.651973,0.01256 0,-1.613661 c 0,-4.810264 0.77954,-8.914045 2.289846,-12.331951 1.542851,-3.491553 3.685838,-6.335819 6.465449,-8.527413 2.877659,-2.2689015 6.282744,-3.9467059 10.236959,-4.9852576 4.037822,-1.06051 8.431508,-1.5734761 13.312967,-1.5735718 l 5.022131,19.4442634 -6.089555,-0.132583 c -3.86672,-0.08419 -6.764519,0.816904 -8.634534,2.522345 -1.817914,1.657925 -2.698292,4.28957 -2.698292,7.395561 l 11.46125,-0.21025 0,17.37575 -11.46125,0 0,49.576832 -19.904971,2.249186 0,-51.805513"
       id="path61" />
    <path
       d="m 129.11253,6.5346891 0.0625,93.4741309 -20.17013,2.53203 0,-93.7484253 z"
       id="path63" />
    <path
       d="m 157.8125,55.625 c -13.90219,-0.08596 -23.28125,9.722558 -23.28125,23.90625 0,14.183691 10.10448,23.99225 23.28125,23.90625 13.17677,-0.086 21.34375,-10.113575 21.34375,-25.0625 0,-14.948924 -7.44156,-22.66404 -21.34375,-22.75 z m 5.53125,13.625 c 5.45822,0 9.75,3.598105 9.75,8.90625 0,5.308145 -4.01013,8.90625 -9.75,8.90625 -5.73985,0 -9.75,-3.627784 -9.75,-8.90625 0,-5.278467 4.29179,-8.90625 9.75,-8.90625 z"
       id="path65" />
    <path
       d="m 173.74995,57.732108 c 0,-3.130117 -1.05228,-5.624463 -3.15673,-7.483047 -2.00432,-1.858482 -5.19181,-2.78775 -9.77085,-2.787803 -3.45978,0 -6.97586,0.561877 -9.73656,1.316906 -2.76073,0.660746 -5.01021,1.415826 -6.74843,2.265243 l 3.01488,-18.182287 c 1.27692,-0.523298 3.51153,-1.112099 6.7039,-1.766287 3.19229,-0.654172 7.20519,-0.98127 12.17647,-0.98127 7.32337,0 14.41861,2.158503 19.13195,6.401568 5.56899,5.013328 6.81601,8.554778 6.85453,18.412212 0.0589,15.07701 -1.29993,45.782807 -1.29993,45.782807 l -17.48172,1.6768"
       id="path67" />
    <path
       d="m 234,30 c -19.99431,0 -35.75,14.918178 -35.75,36.6875 0,21.769322 14.72405,36.71875 35.75,36.71875 9.7245,0 18.086,-3.17475 24.28125,-8.75 l -10.75,-15.25 c -2.94202,3.159896 -7.11604,5 -12.0625,5 -9.80821,0 -17.25,-8.148911 -17.25,-17.71875 0,-10.497916 7.92303,-17.6875 17.25,-17.6875 4.59876,0 8.69913,1.727004 11.6875,4.75 l 10.5625,-15.125 C 251.44109,33.135256 243.17735,30 234,30 z"
       id="path69" />
  </g>
  <g
     clip-path="url(#clipPath174)"
     id="Left">
    <g
       id="g70">
      <path
         d="m 2.75,34.64375 0,11.65625 8.24375,0 0,-11.65625 z m 0,16 0,11.65625 8.24375,0 0,-11.65625 z m 0,16 0,11.65625 8.24375,0 0,-11.65625 z"
         id="rect72"
         style="fill:#ffff01" />
      <path
         d="m 2.75,82.64375 0,11.65625 8.24375,0 0,-11.65625 z m 0,16 0,11.65625 8.24375,0 0,-11.65625 z m 0,16 0,11.65625 8.24375,0 0,-11.65625 z"
         id="rect74"
         style="fill:#2ea02a" />
      <path
         d="m 2.75,2.8625 0,11.65625 8.24375,0 0,-11.65625 z m 0,15.78125 0,11.65625 8.24375,0 0,-11.65625 z"
         id="rect76"
         style="fill:#ff0000" />
    </g>
    <use
       transform="translate(13,0)"
       id="use78"
       x="0"
       y="0"
       width="265"
       height="130"
       xlink:href="#g70" />
    <use
       transform="translate(26,0)"
       id="use80"
       x="0"
       y="0"
       width="265"
       height="130"
       xlink:href="#g70" />
    <use
       transform="translate(39,0)"
       id="use82"
       x="0"
       y="0"
       width="265"
       height="130"
       xlink:href="#g70" />
  </g>
</svg>
