<?xml version="1.0" encoding="UTF-8" standalone="no"?>
<svg
   xmlns:dc="http://purl.org/dc/elements/1.1/"
   xmlns:cc="http://creativecommons.org/ns#"
   xmlns:rdf="http://www.w3.org/1999/02/22-rdf-syntax-ns#"
   xmlns:svg="http://www.w3.org/2000/svg"
   xmlns="http://www.w3.org/2000/svg"
   version="1.1"
   width="3600"
   height="2045.1">
  <defs>
    <linearGradient
       y1="1"
       x2="0"
       id="linearGradient1">
      <stop
         style="stop-color:#8e8e8e" />
      <stop
         style="stop-color:#b5b5b5"
         offset="1" />
    </linearGradient>
    <linearGradient
       x2="0"
       y2="1"
       id="linearGradient2">
      <stop
         style="stop-color:#484848" />
      <stop
         style="stop-color:#000"
         offset="1" />
    </linearGradient>
  </defs>
  <path
     d="m 2573.55,139.96167 c -74.12,-61.7 -188.22,-103.01 -342.02,-124.08 l -113.02,359.34 c -2.44,13.19 -6.64,28.16 -13.15,45.41 -11.54,28.82 -25.43,52.57 -41.75,71.27 -16.34,18.73 -34.63,33.34 -54.89,44 -20.28,10.58 -42.32,17.9 -66.14,21.93 -23.83,4.01 -48.47,5.26 -73.93,3.78 -25.49,-1.48 -47.17,-4.95 -65.01,-10.42 -17.86,-5.46 -34.28,-14.52 -49.26,-27.2 -11.07,-12.45 -17.51,-28.77 -19.27,-49.02 -1.77,-20.24 3.14,-45.27 14.71,-75.09 10.36,-25.91 23.46,-48.51 39.34,-67.71 15.86,-19.21 34.42,-34.11 55.65,-44.67 20.27,-10.59 42.06,-17.68 65.39,-21.25 23.27,-3.55 49.14,-4.48 77.55,-2.83 23.52,1.39 45.42,4.85 65.74,10.48 9.64,2.64 18.08,6.13 25.42,10.33 l 86.76,-275.91 c -21.41,-2.02 -43.32,-3.79 -66.09,-5.1 -219.01,-12.79 -403.08,12.51 -552.29,75.76 -149.18,63.31 -248.65,157.15 -298.33,281.55 -14.91,38.14 -22.92,74.08 -24.1,107.85 -14.35,244.68 142.95,382.45 240.07,443.73 38.97,26.09 73.62,39.01 73.62,39.01 l 44.51,-142.24 13.16,-34.96 c 58.59,11.08 123.75,18.79 195.73,22.97 220.53,12.87 405.39,-12.32 554.58,-75.64 149.16,-63.25 247.8,-156.38 295.91,-279.42 48.08,-122.96 25.16,-223.58 -68.8,-301.82"
     style="fill:url(#linearGradient1)" />
  <path
     d="m 2695.31,1395 c -25.1,77.18 -82.3,138.07 -171.56,182.7 -89.25,44.621 -202.22,66.942 -338.9,66.942 -134.84,0 -232.92,-22.079 -294.3,-66.258 -61.36,-44.153 -79.04,-105.282 -52.99,-183.383 l 75.31,-232.91 256.62,0 -72.52,231.511 c -9.31,28.829 -12.32,52.79 -9.06,71.829 3.25,19.07 10.45,34.171 21.62,45.332 13.94,11.129 29.5,18.8 46.72,22.988 17.19,4.191 37.87,6.293 62.06,6.293 24.18,0 47.42,-2.551 69.74,-7.692 22.31,-5.089 42.75,-13.23 61.37,-24.378 18.58,-11.161 35.09,-26.024 49.51,-44.633 14.4,-18.59 26.26,-41.86 35.57,-69.739 l 75.31,-231.511 256.63,0 -71.13,232.91"
     style="fill:url(#linearGradient2)" />
  <path
     d="m 607.93,1405.4437 c -9.309,29.77 -20.696,52.996 -34.168,69.738 -13.492,16.739 -30.465,31.16 -50.907,43.231 -17.679,11.16 -37.652,18.828 -59.964,23.019 -22.317,4.192 -44.629,6.27 -66.957,6.27 -26.969,0 -49.993,-2.309 -69.036,-6.969 -19.07,-4.652 -34.168,-12.562 -45.332,-23.711 -12.097,-11.16 -19.054,-26.262 -20.921,-45.328 -1.875,-19.043 1.394,-41.141 9.769,-66.25 9.293,-28.801 21.613,-52.754 36.965,-71.832 15.336,-19.039 32.293,-34.172 50.902,-45.328 21.383,-11.152 42.063,-18.82 62.067,-23.012 19.988,-4.191 42.062,-6.269 66.254,-6.269 24.16,0 46.027,2.57 65.546,7.668 19.528,5.121 34.864,13.25 46.028,24.402 11.148,11.168 17.886,26.059 20.215,44.629 2.308,18.609 -1.172,41.859 -10.461,69.742 z m 260.816,-1.402 c 25.102,-77.16 7.426,-138.071 -53.008,-182.7 -60.445,-44.628 -158.996,-66.949 -295.676,-66.949 -134.832,0 -246.855,22.098 -336.113,66.25 -89.277,44.168 -146.933,105.309 -172.953,183.399 -25.102,77.199 -7.2148,137.859 53.695,182.011 60.895,44.18 159.219,66.258 294.98,66.258 135.754,0 248.258,-22.078 337.531,-66.258 89.262,-44.152 146.434,-104.812 171.543,-182.011"
     style="fill:url(#linearGradient2)" />
  <path
     d="m 3101.4,1268.0727 c 29.27,-6.992 90.41,-10.461 183.39,-10.461 48.34,0 95.06,4.871 140.18,14.648 45.07,9.75 90.41,22.09 135.97,36.961 l 39.06,-118.558 c -26.98,-7.442 -66.25,-14.871 -117.86,-22.313 -51.59,-7.437 -106.7,-11.156 -165.26,-11.156 -175.75,0 -304.05,15.117 -384.94,45.328 -80.89,30.219 -128.79,68.11 -143.66,113.66 -11.15,34.41 -3.48,63.461 23.02,87.168 26.51,23.711 73.22,41.153 140.16,52.293 25.11,4.668 66.25,8.379 123.43,11.18 57.18,2.789 94.6,5.559 112.28,8.359 37.17,3.731 62.05,8.36 74.62,13.95 12.54,5.582 16.95,13.941 13.24,25.109 -4.66,13.031 -19.76,22.793 -45.33,29.281 -25.59,6.52 -63,9.762 -112.26,9.762 -7.7,0 -15.13,-0.031 -22.42,-0.07 -18.46,-1 -38.57,-2.723 -57.91,-4.75 -20.6,-2.204 -41.18,-4.864 -61.61,-7.954 -40.9,-6.199 -81.32,-14.187 -120.58,-24.398 -39.21,-10.219 -77.34,-22.66 -112.6,-38.129 -4.74,-2.082 -9.31,-4.332 -13.93,-6.543 -24.76,39.781 -59.05,74.512 -102.7,103.961 22.59,10.852 45.39,19.762 68.07,27.422 45.2,15.059 90.34,25.199 135.25,32.66 44.94,7.41 89.7,12.027 134.31,14.719 22.31,1.32 44.6,2.14 66.91,2.48 19.67,0.262 38.82,0.192 59.02,-0.449 122.16,-0.73 223.18,-15.312 302.94,-43.859 81.8,-29.293 130.62,-68.102 146.44,-116.453 11.16,-33.481 4.41,-61.368 -20.22,-83.688 -24.66,-22.312 -68.13,-38.57 -130.4,-48.82 -28.83,-3.711 -57.68,-7.18 -86.47,-10.449 -28.84,-3.25 -55.33,-6.282 -79.51,-9.071 -95.77,-6.5 -149.24,-12.551 -160.39,-18.133 -11.16,-5.578 -14.88,-13.937 -11.16,-25.109 4.65,-12.078 21.62,-21.617 50.92,-28.578"
     style="fill:url(#linearGradient2)" />
  <path
     d="m 1728.38,1222.0417 c -60.91,-44.149 -159.23,-66.25 -294.98,-66.25 -135.77,0 -248.26,22.101 -337.52,66.25 -89.25,44.172 -144,104.152 -169.103,181.308 l -127.976,395.391 c -52.606,176.312 175.261,246.121 175.261,246.121 l 82.358,-267.18 c 5.92,-19.832 11.92,-39.64 17.81,-59.492 l 16.86,-55.308 c 6.03,-18.321 12.06,-36.622 18.49,-54.809 l 59.72,-163.109 14.29,-37.18 c 0.51,-1.723 0.99,-3.391 1.55,-5.133 8.36,-25.09 19.53,-47.18 33.47,-66.238 13.95,-19.051 30.69,-34.172 50.21,-45.34 18.59,-11.152 38.82,-19.039 60.67,-23.711 21.83,-4.641 46.25,-6.961 73.22,-6.961 22.31,0 43.25,2.082 62.77,6.27 19.52,4.191 34.38,11.863 44.63,23.011 13.01,12.09 20.68,26.5 23.01,43.231 2.3,16.75 -1.18,39.988 -10.46,69.738 -9.31,27.902 -21.17,51.16 -35.57,69.731 -14.42,18.628 -30.91,33.48 -49.51,44.64 -18.61,11.149 -39.04,19.309 -61.36,24.41 -22.31,5.11 -45.58,7.66 -69.73,7.66 -24.2,0 -44.87,-2.082 -62.07,-6.269 -17.21,-4.191 -33.26,-11.852 -48.13,-23.02 -1.12,-1.121 -2,-2.472 -3.04,-3.66 l -36.74,106.578 c -2.06,6.141 -4.03,12.282 -6.01,18.422 34.79,7.078 75.07,11.301 121.11,12.559 136.68,0 249.65,-22.309 338.93,-66.942 89.25,-44.636 146.43,-105.519 171.54,-182.718 25.11,-77.16 7.18,-137.828 -53.7,-182"
     style="fill:url(#linearGradient2)" />
</svg>